<?xml version="1.0" encoding="UTF-8" standalone="no"?>
<svg width="13px" height="22px" viewBox="0 0 13 22" version="1.1" xmlns="http://www.w3.org/2000/svg" xmlns:xlink="http://www.w3.org/1999/xlink">
    <!-- Generator: Sketch 46 (44423) - http://www.bohemiancoding.com/sketch -->
    <title>Rectangle 9</title>
    <desc>Created with Sketch.</desc>
    <defs></defs>
    <g id="Page-1" stroke="none" stroke-width="1" fill="none" fill-rule="evenodd">
        <g id="Desktop-HD-Copy-21" transform="translate(-890.000000, -1881.000000)" fill-rule="nonzero" fill="#333333">
            <path d="M887.047873,1896.6248 L887.236552,1896.6248 L887.236552,1896.77854 L898.065035,1896.77854 C898.872752,1896.77854 899.541966,1897.40513 899.595042,1898.2111 L899.595042,1898.2111 C899.596979,1898.2405 899.597948,1898.26996 899.597948,1898.29943 C899.597948,1899.04183 898.996114,1899.64366 898.253714,1899.64366 L898.253714,1899.64366 L886.092684,1899.64366 C885.05715,1899.64366 884.217684,1898.8042 884.217684,1897.76866 L884.217684,1885.58706 C884.217684,1884.80553 884.851243,1884.17197 885.632778,1884.17197 L885.632778,1884.17197 L885.632778,1884.17197 C886.414313,1884.17197 887.047873,1884.80553 887.047873,1885.58706 L887.047873,1885.58706 L887.047873,1896.6248 Z" id="Rectangle-9" transform="translate(891.907816, 1891.907816) rotate(-135.000000) translate(-891.907816, -1891.907816) "></path>
        </g>
    </g>
</svg>