<?xml version="1.0" encoding="UTF-8" standalone="no"?>
<svg width="31px" height="25px" viewBox="0 0 31 25" version="1.1" xmlns="http://www.w3.org/2000/svg" xmlns:xlink="http://www.w3.org/1999/xlink">
    <!-- Generator: Sketch 46 (44423) - http://www.bohemiancoding.com/sketch -->
    <title>Group</title>
    <desc>Created with Sketch.</desc>
    <defs></defs>
    <g id="Page-1" stroke="none" stroke-width="1" fill="none" fill-rule="evenodd">
        <g id="Desktop-HD-Copy-23" transform="translate(-214.000000, -58.000000)" fill="#FFFFFF">
            <g id="Group" transform="translate(214.000000, 56.000000)">
                <path d="M22.2434524,16.5690476 L21.2087302,16.5690476 C21.0577381,16.5690476 20.9337302,16.6174603 20.8371032,16.7144841 C20.739881,16.8113095 20.6914683,16.9353175 20.6914683,17.0863095 L20.6914683,22.259127 C20.6914683,22.9704365 20.4384921,23.5791667 19.9319444,24.0857143 C19.4253968,24.5922619 18.8164683,24.8452381 18.1051587,24.8452381 L4.65555556,24.8452381 C3.94424603,24.8452381 3.33531746,24.5922619 2.82876984,24.0857143 C2.32222222,23.5791667 2.06904762,22.9704365 2.06904762,22.259127 L2.06904762,8.80952381 C2.06904762,8.09821429 2.32222222,7.48948413 2.82876984,6.98293651 C3.33531746,6.47638889 3.94424603,6.22321429 4.65555556,6.22321429 L16.0357143,6.22321429 C16.1869048,6.22321429 16.3109127,6.17460317 16.4077381,6.07777778 C16.5045635,5.98075397 16.5529762,5.85694444 16.5529762,5.70595238 L16.5529762,4.67123016 C16.5529762,4.52043651 16.5045635,4.39642857 16.4077381,4.29960317 C16.3109127,4.20257937 16.1869048,4.15416667 16.0357143,4.15416667 L4.65555556,4.15416667 C3.37321429,4.15416667 2.2765873,4.60952381 1.36587302,5.52003968 C0.455357143,6.43075397 0,7.52738095 0,8.80972222 L0,22.2593254 C0,23.5416667 0.455357143,24.6382937 1.36587302,25.5486111 C2.2765873,26.4593254 3.37321429,26.914881 4.65555556,26.914881 L18.1051587,26.914881 C19.3875,26.914881 20.484127,26.4593254 21.3948413,25.5486111 C22.3055556,24.6382937 22.7609127,23.5416667 22.7609127,22.2593254 L22.7609127,17.0865079 C22.7609127,16.9355159 22.7125,16.8115079 22.6152778,16.7144841 C22.518254,16.6174603 22.394246,16.5690476 22.2434524,16.5690476 L22.2434524,16.5690476 Z" id="Shape"></path>
                <path d="M28.6609127,2.3922619 C28.4561508,2.1875 28.2132937,2.08511905 27.9333333,2.08511905 L19.656746,2.08511905 C19.3765873,2.08511905 19.1339286,2.1875 18.9293651,2.3922619 C18.7246032,2.59702381 18.6220238,2.83948413 18.6220238,3.11964286 C18.6220238,3.39980159 18.7246032,3.64246032 18.9293651,3.84722222 L21.7744048,6.6922619 L11.2347222,17.2321429 C11.1267857,17.339881 11.0730159,17.4638889 11.0730159,17.6037698 C11.0730159,17.7440476 11.1269841,17.8680556 11.2347222,17.9757937 L13.0775794,19.8184524 C13.1853175,19.9261905 13.3093254,19.9799603 13.4494048,19.9799603 C13.5894841,19.9799603 13.7134921,19.9261905 13.8212302,19.8184524 L24.3609127,9.27876984 L27.2061508,12.1238095 C27.4107143,12.3285714 27.653373,12.4309524 27.9335317,12.4309524 C28.2136905,12.4309524 28.4563492,12.3285714 28.6611111,12.1238095 C28.865873,11.9190476 28.968254,11.6765873 28.968254,11.3964286 L28.968254,3.11964286 C28.968254,2.83928571 28.8654762,2.59702381 28.6609127,2.3922619 L28.6609127,2.3922619 Z" id="Shape" transform="translate(20.020635, 11.032540) rotate(15.000000) translate(-20.020635, -11.032540) "></path>
            </g>
        </g>
    </g>
</svg>