<?xml version="1.0" encoding="UTF-8" standalone="no"?>
<svg width="25px" height="25px" viewBox="0 0 25 25" version="1.1" xmlns="http://www.w3.org/2000/svg" xmlns:xlink="http://www.w3.org/1999/xlink">
    <!-- Generator: Sketch 46 (44423) - http://www.bohemiancoding.com/sketch -->
    <title>Page 1</title>
    <desc>Created with Sketch.</desc>
    <defs></defs>
    <g id="Page-1" stroke="none" stroke-width="1" fill="none" fill-rule="evenodd">
        <g id="Desktop-HD-Copy-23" transform="translate(-1247.000000, -57.000000)" fill="#FFFFFF">
            <g id="Page-1" transform="translate(1247.000000, 57.000000)">
                <path d="M20.7646016,5.75671498 C20.5395186,6.06075146 18.7503708,8.35127599 14.8026947,9.96088093 C15.0511584,10.4688007 15.2893276,10.9853574 15.5110954,11.5053165 C15.5896999,11.6895705 15.6662107,11.8730392 15.7410639,12.0556356 C19.2937106,11.6093956 22.8236745,12.3244266 23.1756938,12.3987563 C23.1521386,9.88210189 22.2516323,7.57116286 20.7646016,5.75671498 M9.99795855,2.13322818 C10.2930964,2.52790854 12.2322996,5.16513064 13.9818398,8.37535464 C17.7784137,6.9542785 19.3855758,4.79688443 19.5776815,4.52373142 C17.6921319,2.85314471 15.2128168,1.83686894 12.5000436,1.83686894 C11.6385342,1.83686894 10.8009289,1.93998834 9.99795855,2.13322818 M2.0486912,10.3156919 C2.52616371,10.3219733 6.92496537,10.3410792 11.9192772,9.01657937 C10.1501949,5.87597405 8.24222417,3.23552402 7.96078322,2.85000401 C4.97372287,4.25703428 2.74095219,7.00697234 2.0486912,10.3156919 M4.5678756,19.628805 C4.80970893,19.215455 7.73997508,14.3701516 13.2464816,12.5926941 C13.3856317,12.5476775 13.5259159,12.5055398 13.6672471,12.465845 C13.3991541,11.8600403 13.1072442,11.2536249 12.8016373,10.6562826 C7.4696138,12.2498351 2.29567178,12.1833571 1.828581,12.1737606 C1.82526582,12.28194 1.82308479,12.3905556 1.82308479,12.4995202 C1.82308479,15.2381168 2.86265402,17.7385443 4.5678756,19.628805 M16.6706216,22.3147079 C16.5117549,21.3793049 15.8919043,18.1190043 14.3929216,14.2289076 C14.3694536,14.2369338 14.3459857,14.2445239 14.3225177,14.2526373 C8.30032698,16.3483517 6.13857085,20.5190169 5.94637791,20.9112545 C7.75672544,22.3210765 10.0318082,23.1621714 12.5000436,23.1621714 C13.9790481,23.1621714 15.3886956,22.8600542 16.6706216,22.3147079 M23.0418654,14.1920917 C22.6765854,14.076933 19.7370717,13.2013777 16.3913617,13.7362551 C17.7878357,17.568598 18.3562139,20.6899229 18.4655274,21.3385632 C20.8609162,19.7211065 22.5659633,17.1589121 23.0418654,14.1920917 M12.5000436,24.9664993 C5.60753208,24.9664993 0,19.3665572 0,12.4832933 C0,5.59994207 5.60753208,0 12.5000436,0 C19.3924679,0 25,5.59994207 25,12.4832933 C25,19.3665572 19.3924679,24.9664993 12.5000436,24.9664993" id="Fill-1"></path>
            </g>
        </g>
    </g>
</svg>