<?xml version="1.0" encoding="UTF-8" standalone="no"?>
<svg width="25px" height="22px" viewBox="0 0 25 22" version="1.1" xmlns="http://www.w3.org/2000/svg" xmlns:xlink="http://www.w3.org/1999/xlink">
    <!-- Generator: Sketch 46 (44423) - http://www.bohemiancoding.com/sketch -->
    <title>envelope4</title>
    <desc>Created with Sketch.</desc>
    <defs></defs>
    <g id="Page-1" stroke="none" stroke-width="1" fill="none" fill-rule="evenodd">
        <g id="Desktop-HD-Copy-23" transform="translate(-1295.000000, -58.000000)" fill="#000000">
            <g id="envelope4" transform="translate(1295.000000, 59.000000)">
                <g id="Group" fill="none" transform="translate(0.000000, -0.175439)">
                    <path d="M2.3994863,6.31631579 C2.71575342,6.54491228 3.66900685,7.22403509 5.25941781,8.35315789 C6.84982877,9.4822807 8.06815068,10.3517544 8.91455479,10.9614035 C9.00753425,11.0282456 9.20513699,11.1735088 9.50736301,11.3973684 C9.80958904,11.6214035 10.0607877,11.8026316 10.2606164,11.9407018 C10.4606164,12.0787719 10.7023973,12.2336842 10.9861301,12.4050877 C11.269863,12.5764912 11.5373288,12.7052632 11.7883562,12.7907018 C12.0395548,12.8766667 12.272089,12.9192982 12.4859589,12.9192982 L12.5,12.9192982 L12.5140411,12.9192982 C12.727911,12.9192982 12.9604452,12.8766667 13.2116438,12.7907018 C13.4626712,12.7052632 13.7303082,12.5763158 14.0138699,12.4050877 C14.2974315,12.2335088 14.5392123,12.0787719 14.7392123,11.9407018 C14.9392123,11.8026316 15.1902397,11.6214035 15.4924658,11.3973684 C15.7946918,11.1733333 15.9924658,11.0282456 16.0854452,10.9614035 C16.9409247,10.3515789 19.1174658,8.80315789 22.6143836,6.31596491 C23.2933219,5.83017544 23.8604452,5.24403509 24.3162671,4.55789474 C24.7722603,3.87210526 25,3.15263158 25,2.39982456 C25,1.77087719 24.7789384,1.23245614 24.3371575,0.784561404 C23.8953767,0.336666667 23.372089,0.112807018 22.7678082,0.112807018 L2.23202055,0.112807018 C1.51592466,0.112807018 0.96489726,0.360526316 0.578938356,0.855964912 C0.192979452,1.35157895 0,1.97105263 0,2.71421053 C0,3.3145614 0.255821918,3.96508772 0.767294521,4.6654386 C1.27876712,5.36578947 1.82294521,5.91614035 2.3994863,6.31631579 L2.3994863,6.31631579 Z" id="Shape" fill="#FFFFFF"></path>
                    <path d="M23.6047945,7.84561404 C20.5544521,9.96087719 18.2383562,11.6047368 16.6575342,12.7768421 C16.1273973,13.1770175 15.6972603,13.4892982 15.3669521,13.7129825 C15.0368151,13.9370175 14.5974315,14.165614 14.0486301,14.3991228 C13.5,14.6326316 12.9885274,14.7492982 12.5142123,14.7492982 L12.5,14.7492982 L12.4859589,14.7492982 C12.0116438,14.7492982 11.5,14.6326316 10.9513699,14.3991228 C10.4027397,14.165614 9.96318493,13.9370175 9.63304795,13.7129825 C9.30291096,13.4892982 8.87277397,13.1770175 8.34263699,12.7768421 C7.0869863,11.8335088 4.77585616,10.1896491 1.40907534,7.84561404 C0.878938356,7.48368421 0.409246575,7.06894737 0,6.60210526 L0,17.9508772 C0,18.58 0.218493151,19.1182456 0.655650685,19.5661404 C1.09280822,20.0142105 1.61832192,20.2380702 2.23219178,20.2380702 L22.7679795,20.2380702 C23.3816781,20.2380702 23.9071918,20.0142105 24.3443493,19.5661404 C24.7816781,19.1180702 25,18.58 25,17.9508772 L25,6.60210526 C24.6,7.05929825 24.1351027,7.47403509 23.6047945,7.84561404 L23.6047945,7.84561404 Z" id="Shape" fill="#FFFFFF"></path>
                </g>
            </g>
        </g>
    </g>
</svg>