<?xml version="1.0" encoding="UTF-8" standalone="no"?>
<svg width="1499px" height="337px" viewBox="0 0 1499 337" version="1.1" xmlns="http://www.w3.org/2000/svg" xmlns:xlink="http://www.w3.org/1999/xlink">
    <!-- Generator: Sketch 46 (44423) - http://www.bohemiancoding.com/sketch -->
    <title>Group 22</title>
    <desc>Created with Sketch.</desc>
    <defs>
        <polygon id="path-1" points="46 0 46 44 0 44 1.47863594e-15 0"></polygon>
        <polygon id="path-3" points="0 48.7920696 0 0 54.8133852 0 54.8133852 48.7920696"></polygon>
        <polygon id="path-5" points="2.34031107e-05 0 66.9566222 0 66.9566222 53.790997 2.34031107e-05 53.790997"></polygon>
        <polygon id="path-7" points="75.8830444 0.000112425804 75.8830444 71.8221176 0.000147777778 71.8221176 0.000147777778 0.000112425804 75.8830444 0.000112425804"></polygon>
        <polygon id="path-9" points="0 60 0 0 52 0 52 60"></polygon>
        <polygon id="path-11" points="1.44901234e-21 4.8570845e-05 1.44901234e-21 61.8910173 33.9490614 61.8910173 33.9490614 4.8570845e-05"></polygon>
        <polygon id="path-13" points="0 88.8261981 0 0 64.9461129 0 64.9461129 88.8261981"></polygon>
        <polygon id="path-15" points="4.25531915e-05 1.21290098e-14 49.8808936 1.21290098e-14 49.8808936 66.8709076 4.25531915e-05 66.8709076"></polygon>
        <polygon id="path-17" points="7.06340038e-16 41.8279444 7.06340038e-16 0.000102648814 34.9516582 0.000102648814 34.9516582 41.8279444"></polygon>
        <polygon id="path-19" points="0 0 47 0 47 44 2.28844177e-20 44"></polygon>
        <polygon id="path-21" points="0 62 0 0 25 0 25 62"></polygon>
        <polygon id="path-23" points="0 30.8924356 0 0.000173426573 25.8395246 0.000173426573 25.8395246 30.8924356"></polygon>
        <polygon id="path-25" points="0 51.8120813 0 -2.84217094e-14 46.8834747 -2.84217094e-14 46.8834747 51.8120813"></polygon>
        <polygon id="path-27" points="56.8930449 0.000117567258 56.8930449 61.9193356 0 61.9193356 0 0.000117567258 56.8930449 0.000117567258"></polygon>
    </defs>
    <g id="Page-1" stroke="none" stroke-width="1" fill="none" fill-rule="evenodd">
        <g id="Group-22" transform="translate(-1.000000, -265.000000)">
            <g id="Group-10-Copy-4" transform="translate(1.000000, 265.000000)">
                <path d="M39.2238055,227.504482 C38.4187784,224.972537 39.9950775,222.491893 40.6468268,219.854169 C40.7990432,219.238353 41.0293846,218.641829 41.2164175,218.034069 C41.5556668,216.932172 42.3042232,216.241739 43.3848108,215.898323 C46.6588425,214.857691 49.7721661,214.884825 52.5793586,217.207752 C55.396529,219.538523 58.2387504,221.838769 61.0830947,224.136682 C61.5193633,224.489212 61.9925715,224.832628 62.5044176,225.049276 C64.3957644,225.849094 66.17884,224.670035 66.0442443,222.629259 C65.8707983,219.996834 64.9199236,217.562191 63.8716051,215.161465 C62.6906014,212.458025 61.4206456,209.778539 60.4788997,206.990941 C59.8649391,205.172961 60.4133002,203.488107 61.9369499,202.02075 C64.875766,199.190755 68.192894,199.187151 71.2518697,200.371721 C75.230088,201.912214 77.6116266,204.900561 79.874067,208.170212 C80.6353612,209.270624 81.3552575,210.409405 82.2118727,211.432443 C83.313053,212.74696 84.8118641,212.886446 86.1429611,211.785398 C86.835259,211.212615 87.4120678,210.45795 87.9035334,209.696713 C88.6066584,208.607112 88.6646153,207.433777 87.8937678,206.316406 C87.2959417,205.450237 86.7029985,204.577708 86.0506123,203.7533 C85.1748905,202.646528 84.1868641,201.626034 83.3470204,200.494672 C79.9369067,195.900754 80.9780072,193.873121 83.1871613,190.035987 C84.031251,188.570325 85.3213749,187.814176 87.2632481,188.039092 C91.4346559,188.522417 95.4432325,189.667346 99.3210347,191.102481 C102.616296,192.322029 105.038171,194.727419 105.50777,198.516644 C105.697351,200.048233 105.928117,201.581518 105.99223,203.120102 C106.032566,204.091204 105.963995,205.156426 104.585768,205.346789 C103.24448,205.531851 101.968793,204.879998 101.536558,203.611906 C101.265031,202.815056 100.996688,201.963514 100.998387,201.136774 C101.006029,198.056213 99.408713,196.212371 96.5830507,195.445411 C94.1405831,194.782747 91.6469521,194.267624 89.146103,193.8763 C87.6997291,193.650113 87.1048752,194.46477 87.4059112,195.927252 C87.5016567,196.392346 87.7260538,196.868251 88.0105307,197.251308 C89.2688102,198.946973 90.567426,200.613384 91.8577622,202.285307 C93.4752469,204.380987 94.3868467,206.618484 93.7866854,209.364109 C93.040252,212.77791 91.4781766,215.499156 88.2455426,217.141401 C84.0945152,219.250224 79.87619,218.258984 77.4515553,214.182096 C76.0261987,211.785398 74.1282708,209.813305 72.5050541,207.605061 C71.5560902,206.314286 70.2394292,205.985498 68.8208661,205.828206 C67.6532371,205.698471 67.0061583,206.201723 67.1099711,207.39986 C67.2112364,208.564715 67.5704415,209.743774 68.0179619,210.834011 C68.899628,212.982687 69.9763942,215.051021 70.8710104,217.194821 C72.1844869,220.341521 72.63689,223.530194 71.3966557,226.868528 C70.3678684,229.637683 67.4144038,231.851651 64.4537212,231.555932 C63.0856846,231.419414 61.7157373,230.942873 60.4302839,230.417151 C57.5543074,229.241484 55.5075599,226.933607 53.2107275,224.958758 C51.938861,223.865554 50.5296389,222.897208 49.0734994,222.061565 C47.6220303,221.228677 46.3985674,221.771358 46.0608042,223.436709 C45.684403,225.293058 45.338148,227.224874 45.4680732,229.089915 C45.5527794,230.301619 46.3117383,231.621435 47.1288663,232.589357 C48.2071186,233.866776 49.6411794,234.843814 50.9175041,235.955461 C52.1957394,237.069016 52.4640818,238.664201 51.5312523,239.912366 C50.7671984,240.935192 49.54416,240.941127 48.4516838,240.997091 C47.7997223,241.031009 47.0129526,240.764968 46.4796646,240.372585 C44.1431327,238.654873 41.9751641,236.72009 40.4241281,234.247925 C39.8846835,233.388327 39.6789685,232.27562 39.4995782,231.247494 C39.3063887,230.140299 39.3229478,228.99643 39.2238055,227.504482" id="Page-1-Copy-13" fill="#056ADF"></path>
                <g id="Page-1-Copy-19" transform="translate(106.000000, 240.000000)">
                    <mask id="mask-2" fill="white">
                        <use xlink:href="#path-1"></use>
                    </mask>
                    <g id="Clip-2"></g>
                    <path d="M35.9331639,7.38643621 C36.3476495,6.89260635 36.7522818,6.41059059 37.2751549,5.7878795 C38.633854,6.46171347 40.000907,7.12867378 41.3531799,7.82441755 C41.5200452,7.91033837 41.6318599,8.13738411 41.7295371,8.32039544 C44.2736438,13.0855637 46.4326107,17.9725247 45.9255887,23.5646807 C45.80542,24.8902241 45.5421627,26.2664607 45.0222884,27.4800921 C43.4648076,31.1138981 41.5710258,34.5410645 38.1596053,36.8379426 C37.574827,37.2314599 37.1260686,37.8221655 36.5665665,38.259932 C34.8222994,39.6245693 33.0227676,40.8455041 30.8057512,41.4061374 C29.0910443,41.8398227 27.4819403,42.6895795 25.7706607,43.144745 C21.4280932,44.3003799 17.0750297,44.2791145 12.7063293,43.1159615 C9.69011603,42.3130315 7.03226682,40.7600129 4.59633346,38.9720008 C2.73296867,37.6039266 1.52142812,35.5164805 0.866819229,33.1369036 C-1.16533869,25.7509358 0.552152846,18.9539551 4.18056256,12.5711128 C5.81944105,9.68803997 7.70829616,6.86081565 10.3076675,4.66102805 C12.5186862,2.78988757 15.0801434,1.57260446 17.8163914,0.712966736 C19.5437364,0.169947204 21.2569438,-0.242902299 23.1389444,0.164362351 C24.9871007,0.564323731 25.824426,1.93433108 25.0616438,3.71160308 C24.7683979,4.39553274 24.4852196,5.1527099 24.4813639,5.87766675 C24.475152,7.13275502 24.0167544,8.04652285 23.093533,8.85868933 C21.4880705,10.2710127 19.8022812,11.6319983 18.4219475,13.2477392 C17.1928422,14.6862684 16.0065778,16.3239191 15.3778876,18.0812145 C14.2085454,21.349857 12.8911878,24.6122702 12.7851566,28.1925905 C12.6806248,31.7159882 13.3817161,32.9906234 16.6787514,34.154206 C18.4763554,34.7883016 20.2092697,35.5764103 22.2176509,35.6393473 C27.1593483,35.7946491 31.0816466,33.5267693 34.8347233,30.7184475 C36.4468262,29.5121193 37.7834622,28.0989368 38.9318124,26.4073708 C40.221966,24.5070172 40.3119319,22.6159002 39.7562855,20.5374757 C38.8184982,17.0295438 37.9188394,13.5113013 36.9559903,10.010243 C36.7139392,9.12891028 36.29367,8.29676722 35.9331639,7.38643621" id="Fill-1" fill="#056ADF" mask="url(#mask-2)"></path>
                </g>
                <g id="Page-1-Copy-20" transform="translate(197.000000, 204.000000)">
                    <mask id="mask-4" fill="white">
                        <use xlink:href="#path-3"></use>
                    </mask>
                    <g id="Clip-2"></g>
                    <path d="M41.0085564,34.741277 C41.3755798,34.3036857 41.6525058,34.0710422 41.8061634,33.7751248 C43.3052879,30.8832726 44.8035564,27.9905683 46.2611634,25.0780509 C47.1655603,23.27059 47.0604825,22.9318509 45.3747432,21.7688465 C40.5758327,18.4581509 35.5062023,15.6127422 30.2287704,13.1346204 C29.6958911,12.8845074 29.0699183,12.8306074 28.2509105,12.6267248 C28.4938093,13.1463378 28.5918249,13.4051857 28.7294319,13.6412378 C29.6875447,15.2876378 30.7160661,16.8971813 31.5971362,18.5834204 C32.2761829,19.8831987 32.665677,21.3363683 33.3736148,22.6173987 C34.9491401,25.4670683 36.6029922,28.2762596 38.3077782,31.05179 C39.0764942,32.3032074 40.0425253,33.4344683 41.0085564,34.741277 M35.6326809,38.9444117 C35.4225253,38.534303 35.3275058,38.2650161 35.1655019,38.0445161 C31.6675447,33.281077 28.8651128,28.1026291 26.0703852,22.9211987 C23.8138872,18.7372378 21.6188093,14.5202552 19.3417665,10.3475857 C18.8621751,9.4687813 18.1426809,8.71972043 17.3104047,7.61381174 C14.6845292,13.77439 12.9587704,19.7347074 11.2726031,25.7146248 C9.59521012,31.6638639 7.91203891,37.6050074 6.97083268,43.8478204 C16.6621751,42.1899161 26.0299377,40.58719 35.6326809,38.9444117 M46.8903463,42.4956335 C42.2970973,43.7943465 37.8260467,43.8124552 33.3977977,44.24749 C29.723284,44.6083857 26.0838677,45.344877 22.4388872,45.97229 C18.6616498,46.6227117 14.9083813,47.4162987 11.1223696,48.0047248 C8.53972374,48.4063117 5.91855642,48.5626857 3.67382879,48.7921335 C2.35297276,47.5023683 1.30519066,46.4795465 -4.28015564e-05,45.2049074 C0.540540856,42.7329639 1.15410117,39.9902422 1.73406226,37.24049 C1.93779767,36.2760422 2.00264202,35.2811291 2.22777821,34.3224335 C3.47116342,29.0308596 4.99725292,23.834303 6.77030739,18.6797161 C8.56454864,13.4624943 10.3577198,8.25464652 12.3839455,3.12179 C12.7060272,2.30562043 12.6041595,1.32349 12.7225058,0.18732913 C13.718284,0.140033478 14.7960272,-0.137775217 15.7554241,0.0859204348 C18.5704825,0.742307391 21.4144319,0.962594348 23.9865914,2.86102478 C27.7912218,5.66957696 32.0506187,7.87351174 36.1499377,10.2781335 C39.5182062,12.2538987 42.9517471,14.1197335 46.3249377,16.0876161 C48.2272529,17.1975726 50.0238482,18.4909596 51.9437121,19.5678943 C55.3064163,21.4543943 55.3498599,24.9067639 53.9301323,27.8407987 C52.9497626,29.8666291 52.1087121,31.9593552 51.1298405,33.9860378 C49.714607,36.9158117 48.2311051,39.812777 46.8903463,42.4956335" id="Fill-1" fill="#056ADF" mask="url(#mask-4)"></path>
                </g>
                <path d="M1360.4426,310.359724 C1359.66412,311.11742 1358.89238,311.100995 1358.01456,310.829336 C1356.66977,310.413214 1355.57702,309.417342 1354.03671,309.354166 C1353.52461,309.332897 1352.97244,308.313861 1352.58119,307.665249 C1350.16138,303.653756 1349.61827,299.346807 1350.23245,294.722924 C1350.64922,291.585582 1352.0807,289.204462 1354.33136,287.166179 C1354.69413,286.837662 1355.05142,286.465131 1355.48105,286.253911 C1358.69032,284.675975 1361.91098,283.101828 1365.48999,282.526502 C1369.39401,281.89937 1372.64399,283.567649 1375.67588,285.688272 C1377.79198,287.168496 1379.64212,289.03894 1381.80209,290.442299 C1383.841,291.766898 1386.0324,293.021372 1388.33453,293.734213 C1390.7902,294.494436 1393.17733,293.447181 1395.22404,291.967799 C1395.64334,291.664974 1395.8629,290.893379 1395.91668,290.314051 C1396.13814,287.935458 1396.20015,285.558549 1395.48494,283.222285 C1394.09713,278.69127 1393.92628,274.167206 1395.23564,269.542901 C1396.28241,265.846026 1398.18886,263.035306 1401.93575,261.810526 C1403.92615,261.160019 1405.97054,260.485295 1408.03455,260.294081 C1410.80364,260.037584 1413.33862,260.767904 1415.66584,262.621922 C1419.3231,265.535198 1422.73906,268.65443 1425.20592,272.613276 C1427.50362,276.300885 1430.72976,276.941494 1434.48319,275.889185 C1438.19211,274.849301 1440.25992,272.203471 1440.87072,268.3933 C1441.29129,265.769583 1441.71438,263.1406 1442.29376,260.549314 C1442.92419,257.731013 1443.95809,254.977994 1445.72576,252.715646 C1449.52453,247.853376 1454.63372,245.631461 1460.84367,246.049689 C1461.96299,246.12529 1463.08547,246.198996 1464.20627,246.196258 C1467.04581,246.189309 1469.3028,247.523174 1471.46699,249.170184 C1474.5881,251.544986 1476.99063,254.527756 1478.99347,257.853364 C1479.83818,259.255881 1480.4473,260.661136 1479.57496,262.391749 C1479.17232,263.190299 1479.26977,264.268721 1479.24656,265.222896 C1479.2086,266.792199 1478.00787,267.857985 1476.62068,267.176311 C1474.24263,266.008179 1471.958,264.627563 1469.73834,263.176611 C1469.23362,262.846619 1469.12332,261.876229 1468.89384,261.180025 C1468.76856,260.799913 1468.88962,260.311138 1468.70233,259.983463 C1467.00532,257.010591 1464.93118,254.406458 1461.59241,253.125871 C1461.33446,253.026895 1461.03813,252.92497 1460.77554,252.956558 C1458.34096,253.249276 1455.84184,253.356465 1453.65339,254.602515 C1452.97193,254.990629 1452.40626,255.702838 1451.97473,256.384723 C1450.44876,258.795957 1449.93603,261.581827 1449.21997,264.284726 C1448.71716,266.182335 1448.35628,268.119957 1447.79314,269.998403 C1447.27049,271.742073 1446.58376,273.431832 1445.28136,274.79897 C1442.56542,277.650333 1439.87753,280.711442 1436.05956,281.928221 C1431.22372,283.469305 1426.24425,284.367042 1421.49488,281.243599 C1419.03225,279.624597 1416.83916,277.884718 1415.14531,275.361662 C1413.84629,273.426567 1411.83691,271.96298 1410.11648,270.317865 C1409.82162,270.036519 1409.40929,269.850149 1409.02036,269.699157 C1407.62221,269.156893 1406.82959,269.441819 1406.4529,270.886874 C1405.88997,273.047087 1405.38399,275.239942 1405.09883,277.450485 C1404.64157,280.992367 1404.39796,284.561204 1404.03477,288.115721 C1403.93501,289.090534 1403.78863,290.068294 1403.56401,291.020995 C1402.66087,294.853067 1400.0525,297.350011 1396.73946,299.080835 C1393.04192,301.01256 1389.03012,301.497544 1384.87722,300.995923 C1381.85841,300.631395 1379.21797,299.37629 1376.77221,297.70064 C1375.21798,296.635485 1373.80106,295.366271 1372.34976,294.156442 C1370.06155,292.248724 1367.67907,290.581919 1364.58517,290.226657 C1363.31251,290.080719 1362.26659,290.293624 1361.26495,291.121446 C1358.59415,293.32862 1356.05622,298.585952 1357.96415,303.109596 C1358.15186,303.554569 1358.3381,304.064613 1358.68168,304.368071 C1360.30888,305.805335 1360.83385,307.555322 1360.39957,309.647094 C1360.34769,309.896852 1360.42889,310.173986 1360.4426,310.359724" id="Fill-1-Copy-14" fill="#056ADF"></path>
                <path d="M78,116.119449 C77.7326886,116.684153 77.6385559,117.182607 77.3370338,117.46233 C76.566123,118.177622 75.7896876,118.968838 74.8617474,119.422284 C70.6453247,121.48277 67.0621197,124.481906 63.2925617,127.164934 C59.4025224,129.933771 55.9729471,133.328094 52.2344126,136.317345 C48.3316239,139.438045 44.442222,142.60901 40.2929459,145.38584 C34.019628,149.583788 27.7860455,153.798563 21.9323937,158.576779 C19.0582651,160.922877 16.5396309,163.51694 14.4835857,166.535005 C13.5348215,167.927731 12.612406,169.262409 11.3780564,170.448393 C9.52748815,172.226422 7.498854,172.346093 5.32742711,171.464019 C4.10752676,170.968509 2.87912684,170.315262 1.89657689,169.460739 C-0.491163973,167.383638 -0.435704298,166.762358 1.01772166,163.752707 C2.15815106,161.390835 3.90311217,159.314364 5.38798653,157.116751 C6.13276109,156.014474 6.91025898,154.933439 7.64929633,153.827587 C10.86617,149.013827 14.4121893,144.441932 19.2484429,141.141411 C22.5481873,138.889325 25.6577539,136.356044 29.3176675,134.585376 C33.7561414,132.438239 37.954715,129.804846 42.3957388,127.663177 C46.0732889,125.889985 49.9148807,124.427223 53.7509478,123.004211 C58.6475484,121.187694 63.5925964,119.49253 68.5544312,117.856887 C71.2813048,116.957987 74.004566,115.924064 76.9624154,116.004405 C77.2263269,116.011346 77.4893885,116.061191 78,116.119449" id="Page-1-Copy-21" fill="#056ADF"></path>
                <path d="M1329.79687,235.215444 C1330.52243,233.075556 1331.2132,231.04053 1331.90291,229.005293 C1332.43869,227.425227 1332.98755,225.849364 1333.50542,224.263413 C1334.13124,222.346908 1334.73197,220.422207 1335.34008,218.500028 C1335.42421,218.233566 1335.45015,217.942938 1335.56802,217.694129 C1336.54428,215.637668 1338.32876,214.248832 1340.05083,212.957712 C1341.01697,212.233559 1342.50857,212.832257 1343.60882,213.566917 C1346.45897,215.470814 1349.24144,217.481674 1352.1559,219.28092 C1355.12075,221.111056 1358.21085,222.739455 1361.23243,224.44855 C1361.52468,224.077016 1361.73722,223.929286 1361.7659,223.752135 C1362.25656,220.723973 1362.71074,217.690136 1363.20605,214.662604 C1363.36377,213.699097 1363.65117,212.757026 1363.82154,211.79478 C1364.05285,210.489371 1364.29196,209.179969 1364.41215,207.861951 C1364.55005,206.349971 1364.80518,205.034055 1366.44438,204.328815 C1367.55243,203.85221 1368.45722,203.013529 1369.59606,202.469048 C1371.2808,201.663779 1372.66402,201.981096 1373.89795,202.773125 C1376.10668,204.190751 1378.33395,205.630862 1380.07078,207.688163 C1380.8305,208.587996 1381.86264,209.25394 1382.72293,210.07602 C1386.1599,213.360977 1389.57388,216.669471 1393.00557,219.959892 C1393.96665,220.88137 1394.15242,222.163453 1393.89475,223.231611 C1393.63729,224.299558 1392.24901,224.607418 1391.28076,224.91885 C1389.72654,225.418991 1388.10631,225.497374 1386.93838,223.870236 C1386.6339,223.445957 1386.04857,223.202191 1385.56106,222.931946 C1382.41129,221.185657 1379.60268,219.015088 1377.07619,216.446929 C1375.87241,215.223055 1374.7146,213.846618 1372.59908,213.396281 C1372.34731,215.520408 1372.08079,217.567202 1371.86635,219.61904 C1371.4303,223.787439 1371.01639,227.95857 1370.60732,232.129491 C1370.51033,233.116114 1370.26405,233.899947 1369.05732,234.005019 C1368.6763,234.038222 1368.33703,234.409965 1367.94948,234.540043 C1367.30468,234.756281 1366.58481,235.154922 1365.98703,235.03367 C1363.84178,234.597833 1361.70643,234.143083 1359.89771,232.692465 C1356.5065,229.971952 1352.91962,227.523364 1349.07338,225.4627 C1347.72158,224.738547 1346.44885,223.868554 1345.135,223.073163 C1344.55177,222.719912 1343.9561,222.386205 1343.28621,221.99723 C1342.94926,222.484972 1342.63656,222.785267 1342.50562,223.150495 C1340.73759,228.080874 1338.97314,233.013143 1337.25888,237.962435 C1336.75725,239.410531 1336.49241,240.940583 1335.98277,242.385317 C1335.35547,244.163549 1333.26441,245.695072 1331.56258,245.269532 C1330.07183,244.896318 1328.48345,244.539074 1327.21135,243.413758 C1324.43626,240.958656 1321.62449,238.536966 1318.71488,236.243884 C1316.47116,234.47553 1314.05516,232.924463 1311.44454,231.085921 C1310.98509,232.05426 1310.51509,232.800479 1310.2648,233.613733 C1308.92881,237.952768 1307.67569,242.317651 1306.33148,246.654165 C1305.91989,247.981639 1305.34847,249.264773 1304.7819,250.538031 C1304.05107,252.18072 1303.1796,252.970438 1300.07895,255 C1299.91933,254.862146 1299.75613,254.649061 1299.54042,254.545671 C1297.33887,253.494324 1297.99084,251.79889 1298.51081,250.123418 C1300.70035,243.068493 1303.02335,236.050342 1304.99803,228.935946 C1305.67488,226.497025 1306.72009,224.456745 1308.28486,222.550537 C1308.89508,221.80726 1309.52849,221.64503 1310.29517,222.001643 C1311.23791,222.440842 1312.18739,222.914715 1313.0226,223.525181 C1314.47666,224.588085 1315.79367,225.839067 1317.25997,226.883478 C1321.02671,229.565955 1324.84069,232.182868 1328.64749,234.809237 C1328.9117,234.991851 1329.27205,235.035561 1329.79687,235.215444" id="Page-1-Copy-22" fill="#056ADF"></path>
                <g id="Page-1-Copy-23" transform="translate(255.000000, 256.000000)">
                    <mask id="mask-6" fill="white">
                        <use xlink:href="#path-5"></use>
                    </mask>
                    <g id="Clip-2"></g>
                    <path d="M66.5524869,15.2681294 C63.3659328,15.9908824 60.3240475,16.6168588 57.3241971,17.4018706 C56.4732545,17.6244353 55.7221717,18.2773059 54.9653277,18.7910471 C53.2834997,19.9324588 51.1990315,20.4627176 49.8543373,22.1235882 C49.6917449,22.3245529 49.3733882,22.4956588 49.1164838,22.5117529 C47.1873532,22.6330941 45.9382513,23.9682706 44.5084201,24.9874941 C43.0781621,26.0073529 41.4774169,26.8493294 40.2327959,28.0553294 C37.7126143,30.4971882 34.6118373,32.2544118 32.2958564,34.9391647 C31.295764,36.0985765 29.8864169,36.9007412 28.7977736,37.9970471 C27.2608277,39.5446235 25.9861207,41.3685529 24.3525156,42.7960588 C21.8690347,44.9662235 20.03635,47.6177294 18.0557959,50.1826235 C17.4931239,50.9110941 16.5175697,51.345 15.689885,51.8464588 C15.0888054,52.2109059 14.3771971,52.4000118 13.7874264,52.7784353 C11.6592162,54.1441059 10.5214965,54.1722706 8.68625127,52.5942 C7.20008885,51.3159882 5.75724172,49.9742471 4.41574809,48.5486471 C3.00042643,47.0446941 1.7321207,45.4045765 0.391053822,43.8309529 C-0.155828344,43.1890941 -0.0952296178,42.5739176 0.363101592,41.9098235 C3.00277357,38.0832353 5.55453471,34.1943882 8.28446465,30.4328118 C10.7459678,27.0416118 13.8650952,24.2367882 17.1316653,21.6299647 C20.3337959,19.0750235 23.6473086,16.6566706 26.9307354,14.2027412 C30.1582576,11.7905294 33.2982959,9.24003529 36.6798755,7.06034118 C40.3027831,4.72521176 44.1412003,2.71302353 47.9296876,0.639211765 C49.5127226,-0.227541176 51.1917768,-0.212717647 52.8253818,0.681988235 C53.2512799,0.915564706 53.7665825,0.985658824 54.2001621,1.20864706 C54.8001748,1.51718824 55.4635602,1.80074118 55.9227449,2.26683529 C58.5378787,4.92257647 61.0877194,7.64205882 63.6951717,10.3052118 C64.0766876,10.6950706 64.6730729,10.8678706 65.1284169,11.1975882 C67.1303086,12.6469059 67.2899137,13.2004588 66.5524869,15.2681294" id="Fill-1" fill="#056ADF" mask="url(#mask-6)"></path>
                </g>
                <path d="M187.207669,126.199135 C187.04996,126.151824 186.892251,126.104513 186.734542,126.057203 C186.301106,126.57783 185.74524,127.038111 185.453762,127.629179 C183.531857,131.527999 181.109736,135.112467 178.582616,138.625022 C178.13469,139.24742 177.016869,140.146113 176.703971,139.98021 C174.916885,139.032314 173.149539,139.561142 171.363083,139.646512 C171.053965,139.661231 170.713768,139.402599 170.41704,139.222398 C169.760376,138.823516 169.079351,138.447134 168.485476,137.966247 C167.257195,136.971881 165.882126,136.718927 164.350398,136.868219 C163.242867,136.976507 162.121056,136.930038 161.007644,136.991016 C159.689905,137.063139 158.355995,137.071339 157.062195,137.297379 C155.139031,137.63339 153.262275,138.267774 151.33281,138.525774 C149.780713,138.7331 148.051586,138.830035 146.863626,137.500289 C144.084927,134.39019 141.405978,131.190727 138.65836,128.052662 C138.284143,127.625815 137.745287,127.343633 137.296521,127.004888 C137.031083,127.31819 136.870644,127.41954 136.870014,127.52131 C136.849854,130.862706 136.776355,134.205573 136.863294,137.544446 C136.917684,139.636419 137.38661,141.723556 135.969961,143.615773 C135.690033,143.989842 135.796713,144.690882 135.810362,145.239055 C135.827792,145.936729 135.981511,146.631881 135.991171,147.329135 C136.08966,154.574188 138.72577,161.004865 142.549419,166.962857 C145.204639,171.100544 148.517363,174.701412 152.61212,177.536689 C156.241522,180.049832 160.180041,180.766851 164.363838,179.583454 C166.563151,178.961266 168.693374,177.999913 170.748418,176.97674 C176.201445,174.261949 180.65824,170.392355 183.473688,164.91441 C184.52011,162.877948 184.963836,160.539118 185.912609,158.442729 C187.846274,154.17026 188.111291,149.686889 188.066352,145.101749 C188.031282,141.541883 188.114651,137.971083 188.365599,134.420679 C188.568458,131.549447 187.765004,128.910142 187.207669,126.199135 M189.59388,169.24996 C190.185235,168.416241 190.627702,167.792581 191.070378,167.168711 C191.196797,167.237049 191.323636,167.305597 191.450265,167.373934 C191.022079,168.285664 190.758111,169.333437 190.137565,170.085993 C187.335558,173.485002 184.42393,176.769625 180.816369,179.391267 C175.315672,183.388284 169.389519,186.219775 162.451593,185.986586 C158.687583,185.860004 154.988252,185.086842 151.665868,183.071197 C146.230271,179.773327 142.064953,175.178094 138.72325,169.885606 C136.569296,166.47419 134.587332,162.869116 133.144013,159.11349 C131.235758,154.148602 130.517984,148.880926 130.105127,143.524936 C129.7181,138.502224 130.502234,133.619342 130.801902,128.680107 C130.966541,125.96952 131.470117,123.277437 131.868693,120.584514 C132.010862,119.623581 133.464471,118.721104 134.467003,118.980366 C135.513005,119.250983 136.609616,119.509194 137.530039,120.040125 C138.777219,120.759878 139.95762,121.645955 141.025881,122.615719 C144.285056,125.574634 147.476821,128.607774 151.058133,131.951272 C152.767519,131.845507 155.031511,130.905811 157.377823,130.340817 C159.675835,129.787597 162.264485,129.954341 164.640196,130.336822 C167.858631,130.854926 171.001046,131.859595 174.164041,132.701094 C174.961615,132.913256 175.50824,132.767749 175.938947,132.05851 C177.748293,129.078778 179.587878,126.11713 181.382524,123.128566 C182.279847,121.6346 183.079521,120.081759 183.969284,118.582746 C184.941366,116.944745 185.576191,116.715972 187.435727,117.272976 C188.369169,117.552635 189.285392,117.890328 190.192375,118.19627 C192.299079,120.646964 191.728303,123.853156 192.527767,126.682334 C193.304761,129.433293 193.742187,132.278452 194.404522,135.064105 C194.912508,137.200865 195.099616,139.291787 194.612,141.483007 C194.363152,142.601011 194.513301,143.850223 194.68151,145.011543 C195.419444,150.107849 194.885418,155.037412 192.971073,159.820837 C191.830782,162.670832 190.715481,165.53071 189.60228,168.391219 C189.5376,168.557752 189.59388,168.771807 189.59388,169.24996" id="Fill-1-Copy-15" fill="#056ADF"></path>
                <g id="Page-1-Copy-24" transform="translate(1205.000000, 247.000000)">
                    <mask id="mask-8" fill="white">
                        <use xlink:href="#path-7"></use>
                    </mask>
                    <g id="Clip-2"></g>
                    <path d="M27.5649256,28.1499671 C27.4000478,28.0472612 27.23517,27.9445553 27.0700811,27.8418494 C26.5950811,28.3284847 26.0879922,28.7880141 25.6503589,29.3064141 C23.7024367,31.6133788 21.7847033,33.9459671 19.8353033,36.2516612 C18.6570922,37.6452847 18.4656144,39.5041553 19.34067,41.1201318 C19.8374144,42.03792 20.2573144,42.9976376 20.7367478,43.9253788 C21.1300478,44.6864612 21.5602922,45.4280612 21.97407,46.1783435 L22.4359811,46.0883435 C24.1202256,40.1015435 26.8429256,34.4165082 27.5649256,28.1499671 M46.4853367,41.1906494 C46.2406589,41.0576612 45.99577,40.9244612 45.7508811,40.7914729 C45.6392033,41.0525788 45.5735478,41.3477788 45.4088811,41.5692847 C43.60937,43.9937788 41.7448367,46.3714729 39.99557,48.8317553 C37.7189478,52.0330024 35.5147367,55.2867671 33.3198144,58.5454024 C32.9575478,59.0832847 32.8017478,59.7611435 32.4741033,60.5614024 C33.1125033,60.6079906 33.4559811,60.6935435 33.7810922,60.6475906 C36.6359478,60.2452376 39.4287367,59.6249788 42.1071033,58.4952141 C43.4223256,57.9403906 44.0014033,57.1492376 44.1633256,55.6749318 C44.5234811,52.3972376 45.1257811,49.1455906 45.6508144,45.8867435 C45.9037256,44.3173553 46.2056144,42.7558024 46.4853367,41.1906494 M20.0048256,4.62184941 C21.5657811,4.86114353 23.5527589,4.94203765 25.3938589,5.50427294 C27.7224144,6.21559059 29.7520367,5.55721412 31.5625256,4.41199059 C33.0031478,3.50119059 34.2001478,2.11074353 35.2812478,0.753543529 C35.9080367,-0.0331623529 36.4353922,-0.152597647 37.2342367,0.159967059 C39.3035478,0.970178824 41.5335144,1.52373176 43.3912922,2.67869647 C45.4886811,3.98274353 47.5459589,5.62773176 46.9964367,8.71737882 C46.6546478,10.6397788 46.4566256,12.5882259 46.1386922,14.9337318 C46.8961589,14.4989788 47.4376589,14.2690024 47.88437,13.9178965 C49.8683922,12.3584612 51.8076589,10.7410024 53.7975922,9.18919059 C55.6137811,7.77248471 58.50347,8.88763765 58.7207033,11.1740612 C58.8678478,12.7224847 59.45537,13.8422965 60.6981811,14.6938024 C61.0439811,14.9307671 61.34207,15.23952 61.6528256,15.5258259 C63.3689478,17.10792 64.3214811,18.9407435 63.6602811,21.36312 C63.2351033,22.9202259 62.9840922,24.5292141 62.4919922,26.0626024 C61.6969478,28.5413082 60.5852367,30.9300141 59.94937,33.4436612 C59.3852811,35.6743906 59.2657922,38.0211671 58.9945144,40.3219906 C58.9132367,41.0095906 58.9818478,41.7147671 58.9818478,42.9095435 C60.8791033,40.5064376 63.2055478,38.9702965 64.0662478,36.2565318 C64.7135144,34.2168141 66.0354922,33.0349553 68.16117,32.8949788 C70.3221033,32.7524612 72.1613033,33.1150024 73.74527,35.0369788 C75.1103144,36.6934024 75.0191144,38.6922494 75.8494144,40.4299906 C76.0022589,40.7501788 75.6055811,41.5019435 75.2629478,41.8653318 C73.1921589,44.0621788 71.0438922,46.18512 68.9619144,48.3718024 C67.8081922,49.58352 66.62787,50.7933318 65.6419811,52.1382494 C62.2753922,56.7312141 58.9691811,61.3690729 55.6910478,66.0257788 C55.0556033,66.9285318 54.70157,68.0252612 54.1273478,68.9773553 C53.1752367,70.5560612 52.82057,70.7720612 51.2572922,69.9455435 C49.9228589,69.2403671 48.7157256,68.2255906 47.6029589,67.1856141 C46.4876589,66.14352 45.5585589,64.9010965 44.5684478,63.7700612 C42.0522144,63.9464612 40.0156256,64.9144376 38.1101367,66.3006494 C37.5836256,66.6839435 36.85297,66.9649553 36.2109811,66.9753318 C34.0367478,67.0102729 31.8532256,66.9888847 29.6876478,66.8126965 C28.6413811,66.7277788 28.1182478,67.1150965 27.6964478,67.9477553 C27.2847811,68.76072 26.8992922,69.6018494 26.3753144,70.3398494 C25.2142033,71.9757318 24.1934811,72.2254024 22.4155033,71.2478965 C21.5043478,70.7466494 20.6263367,70.1128376 19.8893478,69.3809788 C18.6207811,68.1214024 17.1926144,66.9954494 16.7222589,65.0618259 C16.5263478,64.2566965 15.7004811,63.6059435 15.1304811,62.8438024 C15.8043478,60.8491906 16.5081922,58.8645318 17.13287,56.8550965 C17.3066144,56.2956141 17.4478478,55.5891671 17.2608033,55.0760612 C16.0800589,51.8366965 14.8047367,48.6320612 13.5517922,45.4191671 C13.47727,45.2277318 13.32527,45.0665788 13.0827033,44.6998024 C12.0647256,45.5616847 11.1609589,46.2979906 10.2888589,47.07072 C8.62572556,48.5443906 7.38819222,48.7754259 5.54160333,47.5241082 C3.80711444,46.3486024 2.15559222,45.0432847 1.50705889,42.8237788 C1.22248111,41.8488141 0.511881111,40.9996376 0.000147777778,40.1026024 C1.97298111,34.2883906 5.13605889,29.1249318 8.24678111,23.9375435 C11.1052256,19.1711435 13.9911144,14.4212612 16.8753144,9.67032 C17.1664367,9.19067294 17.5620589,8.77455529 17.8536033,8.29490824 C18.5272589,7.18716706 19.1671367,6.05824941 20.0048256,4.62184941" id="Fill-1" fill="#056ADF" mask="url(#mask-8)"></path>
                </g>
                <g id="Page-1-Copy-25" transform="translate(297.000000, 167.000000)">
                    <mask id="mask-10" fill="white">
                        <use xlink:href="#path-9"></use>
                    </mask>
                    <g id="Clip-2"></g>
                    <path d="M26.1417683,7.62165606 C24.9496762,7.48586615 24.7293591,7.8545304 24.7648393,8.99345486 C25.3263612,8.43404322 25.623375,8.13829922 26.1417683,7.62165606 M27.6542444,9.83492458 C27.8208101,10.1877645 27.8592647,10.4383878 28.0030975,10.5459505 C29.078976,11.3493562 30.1569791,12.1529759 31.2717371,12.9001411 C32.2715562,13.5701093 33.2911338,14.1733586 33.763849,15.3926878 C34.1683657,16.4362385 34.6691251,17.4421531 35.1271808,18.4649611 C35.2331965,18.3514108 35.3389997,18.2378605 35.4450154,18.1243102 C36.3802478,18.6589161 37.3316269,19.1672195 38.2456137,19.7364678 C38.9214371,20.1575235 39.3947896,21.0205913 40.3994953,20.683148 C39.9522749,12.0017893 35.5960718,8.29354878 27.6542444,9.83492458 M10.88231,24.2665046 C10.88231,24.4606735 10.9602814,25.0143114 10.8693502,25.538439 C10.3413964,28.5799191 9.57974067,31.5433466 10.5899702,34.7050061 C11.8107438,38.5257277 13.3540261,42.0643912 16.3717548,44.8107688 C18.1884682,46.4637703 20.3593463,47.04756 22.6664088,46.6004156 C24.7886344,46.1891967 26.8868524,45.5149517 28.9003003,44.7136843 C30.5842286,44.0435024 32.2173799,43.1496412 33.7077605,42.1137888 C34.7908625,41.3612775 35.5297854,40.1259101 36.5550993,39.26605 C38.2213937,37.8681624 39.0933142,36.0419486 39.538835,34.0074522 C40.0136747,31.8373799 40.2594866,29.61235 39.0673946,27.5628847 C37.7522903,25.302357 36.3893834,23.068132 34.975487,20.8696186 C34.7479464,20.5159233 34.1622045,20.2697907 33.7122221,20.2122671 C32.6316696,20.0739111 31.9970627,19.4030876 31.2927702,18.6642622 C28.1647768,15.3824233 24.4767486,13.5273408 19.7797656,13.9105463 C17.5568358,14.0916708 16.3203404,15.4549159 15.2960888,17.0362802 C14.1505246,18.8047566 13.3548759,20.7996921 12.3342361,22.6554162 C12.033398,23.2019973 11.4854733,23.6110777 10.88231,24.2665046 M31.9501099,1.03595259 C33.8532931,-0.648911447 35.9009465,0.0956876858 37.9260795,0.669854449 C38.3790363,0.798159871 38.8729971,1.30774624 39.2195132,1.20446037 C41.661273,0.476327104 43.1750238,2.39321011 44.9908875,3.27017767 C46.938474,4.21065641 48.053232,6.05868217 48.7458394,8.14706676 C49.5278909,10.5059619 50.5051897,12.802629 51.2120316,15.182053 C51.6520285,16.6644084 51.8472758,18.2421374 51.967951,19.7916392 C52.0658933,21.0501015 51.9161117,22.3323004 51.8294295,23.6005995 C51.5999768,26.9523648 50.6335132,30.1499497 49.5438251,33.2825266 C48.3859385,36.6107693 46.9752289,39.8517642 45.607648,43.1023821 C45.3860561,43.6290758 44.7378521,43.9579654 44.4215047,44.4634888 C43.5655185,45.8307969 42.8916072,47.3257689 41.9404405,48.6173768 C40.8596755,50.084977 39.5787768,51.4075921 38.3429187,52.7539436 C37.4841705,53.689504 36.6171365,54.6370395 35.6381381,55.4357408 C34.6733742,56.2228945 33.6147047,56.9334927 32.5044083,57.4909798 C30.8094323,58.3422863 29.0638916,59.1138295 27.2835082,59.7632688 C26.1307205,60.1836829 24.9180202,60.0312133 23.7975259,59.4085043 C23.4418741,59.210914 23.0301339,59.100999 22.6317784,58.9987823 C21.439049,58.6921324 20.1065233,58.6675405 19.4708542,57.3017293 C19.4177402,57.1877513 19.2690208,57.0718487 19.1457961,57.0444769 C16.5973833,56.4803608 15.1354718,54.2170531 12.9739419,53.0492599 C12.6711917,52.8856705 12.380764,52.6538654 12.1589596,52.3904116 C9.71082618,49.4823692 6.98267537,46.8482589 4.32845934,44.1382345 C3.10003726,42.8838352 1.97486891,41.4438207 1.15160091,39.8994511 C0.595177973,38.8554726 0.690783289,37.4727679 0.414165241,36.2600678 C0.1530565,35.1151557 -0.365124313,34.1092412 0.404392253,32.8321746 C0.814432831,32.1517282 0.471740887,30.9599846 0.348091345,30.015229 C-0.0568502829,26.9209299 0.732849628,23.9662699 1.3362254,20.9934333 C1.60200818,19.6842903 1.77516003,18.2650185 2.41826512,17.1444845 C3.66495845,14.9720598 4.34481847,12.4273356 6.32236132,10.7112506 C6.88154619,10.2260423 7.50361812,9.81311266 8.10975582,9.38521408 C8.27632153,9.26760078 8.62729927,9.25263181 8.65959262,9.12903092 C9.08238057,7.49933822 10.6549818,7.21920471 11.6898562,6.3101608 C12.4287791,5.66093536 12.8213983,6.38072878 13.2511973,6.19639666 C15.4894239,2.98106278 18.8791635,2.07586803 22.3211674,1.29598491 C22.6203058,1.22841072 22.9972032,1.45551132 23.3254481,1.57932605 C24.3979273,1.9843435 25.2942803,1.86715788 26.2711541,1.11806806 C28.0113833,-0.216522174 29.9054309,-0.0813737966 31.9501099,1.03595259" id="Fill-1" fill="#056ADF" mask="url(#mask-10)"></path>
                </g>
                <g id="Page-1-Copy-26" transform="translate(393.000000, 221.000000)">
                    <mask id="mask-12" fill="white">
                        <use xlink:href="#path-11"></use>
                    </mask>
                    <g id="Clip-2"></g>
                    <path d="M9.87312956,35.6989993 C14.8824629,36.16711 19.2909157,34.8852761 24.0340226,34.8522381 C22.5536327,28.1594561 21.1382491,21.7605841 19.6133811,14.8676429 C15.8620478,21.7738851 13.4878214,28.7770962 9.87312956,35.6989993 M17.9794566,61.8911031 C14.2120855,60.9205564 14.6134566,57.987892 14.4222868,55.4503972 C14.2512176,53.1769924 14.3996201,50.8810616 14.2952679,48.5999336 C14.2048151,46.618508 13.9580478,44.644591 13.7636704,42.4836014 C11.4337082,42.4808125 9.25642516,42.249117 7.07614843,42.6998505 C6.60014843,42.7981066 6.05101635,42.9675875 5.62911698,42.8251377 C4.15150692,42.3257052 2.69634969,41.7462519 1.26899119,41.1153107 C0.211783648,40.6480581 -0.124367296,39.6624941 0.0392176101,38.6091377 C0.257330818,37.2035183 0.394827673,35.7056498 0.993997484,34.4532069 C2.8969283,30.4753384 4.83770818,26.5069093 7.48094088,22.9336498 C8.2349283,21.9144042 8.83452579,20.7452 9.3205761,19.5684872 C11.3614314,14.6284388 13.3417711,9.66371903 15.3238214,4.69964291 C16.0741736,2.82097855 17.2648151,1.22828651 19.1818591,0.669213841 C21.2804503,0.0569370242 23.581117,-0.741339792 25.4699346,1.3861827 C25.7353057,1.68524152 26.1826516,1.83541453 26.5649912,2.01369135 C27.4838465,2.44254256 27.9521484,3.18976055 28.1195824,4.15623114 C28.5068403,6.3918782 28.8429912,8.6376083 29.2798591,10.8633869 C30.268639,15.9031931 31.3277711,20.9288401 32.3144126,25.9690754 C32.8763748,28.8395253 33.3664881,31.7247779 33.8602365,34.6083142 C34.1016579,36.0180097 33.907922,37.1739128 32.5631044,38.1513246 C31.3842239,39.0081689 30.6317333,40.4856567 29.0412176,40.7692692 C27.6497836,41.0176983 26.2363245,41.1455599 24.8305635,41.3081758 C24.3359597,41.3652415 23.8349409,41.3637398 23.3371296,41.3950616 C21.3221484,41.5212069 21.2103119,41.6020858 21.193205,43.7051516 C21.1743874,45.992072 21.282161,48.2800651 21.2464503,50.5661273 C21.2105258,52.8442519 21.0452302,55.1200166 20.9733811,57.3981412 C20.9032428,59.6194145 20.0072679,61.2333453 17.9794566,61.8911031" id="Fill-1" fill="#056ADF" mask="url(#mask-12)"></path>
                </g>
                <g id="Page-1-Copy-27" transform="translate(1417.000000, 0.000000)">
                    <mask id="mask-14" fill="white">
                        <use xlink:href="#path-13"></use>
                    </mask>
                    <g id="Clip-2"></g>
                    <path d="M30.2561161,27.5186111 C30.2561161,28.7478186 30.1374387,29.5866017 30.2747774,30.3804649 C31.4131161,36.9532408 31.5458419,43.5858399 31.5546484,50.2297738 C31.5582129,52.8773139 31.5689065,55.5269531 31.6890516,58.170295 C31.7356,59.1967337 32.0033581,60.2387054 32.3306645,61.2200144 C32.8083097,62.6528304 32.8653419,63.9513068 31.7177774,65.0940333 C30.5081484,66.298262 29.0607452,66.3643823 27.6523419,65.6763116 C25.1443903,64.4510922 22.6678903,63.1494672 20.2498903,61.7552738 C17.7761161,60.3289649 15.4099065,58.71563 12.9493419,57.2645521 C12.2114871,56.8296276 11.3151161,56.6646417 10.4573258,56.363637 C8.97427742,59.1020663 8.50250323,61.881637 8.04205161,64.5976064 C7.10877742,70.0994436 6.40195484,75.6424224 5.70708387,81.181413 C5.5359871,82.5457998 5.69806774,83.9679106 5.83561613,85.3505592 C5.96876129,86.6893375 5.45526129,87.6964649 4.43287419,88.4072054 C3.48785806,89.0642101 1.87124516,88.9195851 1.08600323,88.1763092 C0.108067742,87.2502054 -0.178770968,86.161005 0.102825806,84.7596748 C0.818245161,81.203663 1.4066,77.6203634 1.97147097,74.0360144 C2.97037419,67.697913 3.3287129,61.2546488 5.14808387,55.0502573 C5.37935806,54.2605922 5.30869677,53.3861252 5.41730968,52.5561583 C5.83289032,49.3809153 8.29806774,48.1233705 11.0163258,49.7992573 C12.9097129,50.9667526 14.6666,52.3533894 16.5138581,53.5987597 C19.6248419,55.6957172 22.7427452,57.7878469 26.4261484,59.2437526 C26.5632774,58.7865781 26.7159226,58.4849436 26.737729,58.1740733 C27.2237613,51.2581017 27.3493581,44.3282762 26.6549065,37.4324554 C26.2575677,33.4853894 25.3769226,29.5826134 24.6120194,25.6798375 C24.4444871,24.8246818 23.7573742,24.0853941 23.4621484,23.2390545 C22.6519548,20.9179177 23.7171161,18.30942 26.6769226,18.7105498 C27.6301161,18.8396417 28.5942129,19.4851017 29.3838581,20.1093611 C31.6771,21.9227361 33.8023903,23.9556724 36.1470032,25.6955804 C38.8520516,27.7033281 41.8890194,29.1737172 45.1551645,30.0316017 C46.4134387,30.3619932 47.7866161,30.3798351 49.0983581,30.3237903 C49.7020194,30.2981818 50.4233097,29.8779507 50.8426645,29.41238 C51.4834387,28.7005899 51.9858258,27.83242 52.4139871,26.96467 C55.4945677,20.7210262 57.4558903,14.1035403 58.7326161,7.28454505 C58.9391484,6.18233042 58.5514548,4.96550731 58.4212452,3.80346958 C58.3090677,2.8032691 59.5558097,0.718066274 60.5618419,0.257323349 C61.8115194,-0.315299292 63.4465839,0.0965356132 64.3370839,1.2048375 C65.1862774,2.26129269 65.0028097,3.41157571 64.6539065,4.58096014 C64.0965839,6.44786108 63.4386161,8.29230212 63.0079387,10.18838 C61.5661968,16.5371866 59.6610677,22.7231064 56.9771968,28.6657455 C56.4353903,29.8655663 56.0925677,31.1653021 55.7518419,32.4440474 C55.1108581,34.8497762 54.5017452,35.4173611 52.0200032,35.6344035 C48.374971,35.95367 44.9691806,34.8770639 41.5973581,33.7318186 C38.1378903,32.5567667 34.9799387,30.7748776 32.0264226,28.6252337 C31.5846323,28.3038682 31.099229,28.0425356 30.2561161,27.5186111" id="Fill-1" fill="#056ADF" mask="url(#mask-14)"></path>
                </g>
                <g id="Page-1-Copy-28" transform="translate(72.000000, 24.000000)">
                    <mask id="mask-16" fill="white">
                        <use xlink:href="#path-15"></use>
                    </mask>
                    <g id="Clip-2"></g>
                    <path d="M24.8040851,12.750228 C24.712383,15.3585338 25.0066383,16.6464701 26.1315319,18.4584573 C28.1502553,18.3513427 30.2577021,18.233986 32.3655745,18.1311389 C33.0021702,18.099986 33.6472766,18.0455752 34.2772766,18.1098013 C37.1047234,18.3987121 37.788766,18.4800083 39.2117447,20.5072917 C38.2811064,22.3440306 36.8428085,23.3364414 34.7111064,23.3727153 C32.5272766,23.4098427 30.3413191,23.5135433 28.1645106,23.6882981 C26.3868511,23.8308331 26.2213191,24.057865 26.2125957,25.7616707 C26.2072766,26.8270561 26.2485532,27.893935 26.3115319,28.9576134 C26.3572766,29.7338745 26.4721702,30.5060815 26.5845106,31.5405274 C27.373234,31.4645656 28.1179149,31.4259446 28.8519574,31.3169096 C31.9317447,30.858365 34.9991915,30.3050815 38.0885532,29.9303936 C40.5528085,29.6310274 42.2240851,30.3492503 43.5189787,31.9551166 C42.686,34.4048841 41.7134468,34.9603013 39.3068511,35.2374764 C35.2513191,35.7045561 31.2242979,36.4217121 27.0500426,37.0539446 C27.2168511,39.0210561 27.3377021,40.7801261 27.5285532,42.5313013 C27.6042979,43.2286134 27.8342979,43.9088554 28.0557872,44.8617917 C29.0362128,44.8758745 30.0179149,45.0292917 30.9500426,44.8769414 C33.5991915,44.4435752 36.2185532,43.8269191 38.8679149,43.3950465 C40.9606809,43.054072 43.0762128,42.7367822 45.1894043,42.6753299 C47.0211064,42.6217726 48.4625957,43.7652535 49.8808936,44.8765146 C49.8015319,46.4458936 49.0204681,47.4700975 47.552383,47.7769318 C45.5528085,48.1951484 43.5234468,48.4800051 41.5000426,48.7729701 C37.2985532,49.3813045 33.0921702,49.9574191 28.5974894,50.5873045 C28.7347234,52.1980783 28.8079149,53.7249955 29.0055745,55.2356962 C29.3642979,57.9765083 29.7640851,60.7130529 30.2115319,63.440849 C30.4540851,64.9197567 30.1566383,66.0946038 28.8394043,66.8710783 C28.2347234,66.5819541 27.7119574,66.219642 27.1353617,66.0777471 C25.3338723,65.634779 25.0336596,65.2897503 24.8155745,63.3949732 C24.4504681,60.2242089 24.0515319,57.0572854 23.6391915,53.8924955 C23.549617,53.2035051 23.3440851,52.5298777 23.138766,51.6121484 C21.5730213,51.9038331 20.1485532,52.2379796 18.7051489,52.4231898 C16.2536596,52.737279 13.7942979,53.0076261 11.3306809,53.1985975 C9.78153191,53.318728 8.19259574,53.4491006 6.66770213,53.2378586 C4.38025532,52.9209955 2.02046809,52.5859955 4.25531915e-05,50.6045879 C1.68344681,49.1186389 3.34642553,48.2056038 5.47195745,48.1083045 C9.00344681,47.9465656 12.5421702,47.8108586 16.0570638,47.4560146 C18.1519574,47.2447726 20.2072766,46.6364382 22.3330213,46.1956038 C22.7802553,43.3668809 22.0742979,40.7809796 21.7385532,38.0192567 C21.0862128,38.0192567 20.6057872,37.9797822 20.133234,38.0254446 C15.9779149,38.4257376 11.8230213,38.8332854 7.67025532,39.2587567 C6.80514894,39.3473076 6.06685106,39.2154414 5.24110638,38.8211229 C4.43302128,38.4351261 3.3953617,38.5328522 2.26748936,38.3950115 C1.94578723,37.9949318 1.4772766,37.4117758 0.923234043,36.7227854 C1.62642553,35.0057503 3.37238298,34.7334828 4.81685106,34.4639892 C7.59217021,33.945486 10.439617,33.8157535 13.2557872,33.511693 C15.1564255,33.3066389 17.0579149,33.1020115 18.9525957,32.8498013 C19.6357872,32.7586898 20.3008936,32.5303777 21.2355745,32.3003586 C20.9934468,30.0127567 20.7842979,27.8425115 20.5249362,25.6784541 C20.4145106,24.7592312 19.7172766,24.5966389 18.9438723,24.6794287 C16.9789787,24.8904573 15.0179149,25.1413873 13.0513191,25.3344924 C12.352383,25.402986 11.6279149,25.4409669 10.9385532,25.3364127 C8.58408511,24.9796484 6.23982979,24.5533236 3.71812766,24.1244382 C3.69834043,23.7049414 3.67323404,23.1768363 3.65365957,22.7656611 C4.53174468,22.2192057 5.28621277,21.6437312 6.12748936,21.2594414 C6.81429787,20.9455656 7.59493617,20.7804127 8.35089362,20.6873809 C11.5111064,20.2990369 14.683234,20.0041516 17.8398298,19.5908427 C19.5736596,19.3635975 19.7708936,19.081728 19.656,17.3988331 C19.5698298,16.1414096 19.3674894,14.8916675 19.1968511,13.4707981 L7.12812766,13.4707981 C7.18834043,12.8005847 7.23025532,12.3360656 7.24940426,12.1237567 C10.7215319,9.57434268 14.7421702,9.40876306 18.8779149,8.5364828 C18.7442979,7.23958471 18.612383,5.96189045 18.4951489,4.82267707 C17.2174894,4.51392229 16.1740851,4.35901146 15.2151489,3.9858172 C14.7928085,3.82151783 14.3000426,3.22598599 14.2794043,2.80478217 C14.2579149,2.35989363 14.6506809,1.71293822 15.0534468,1.46051465 C16.7789787,0.377632484 18.576,-0.444717834 20.7304681,0.265396815 C21.7489787,0.601036943 22.9981277,1.76478854 23.2034468,2.82142548 C23.5091915,4.39528535 23.863234,5.95975669 24.2366383,7.71626624 C25.2483404,7.65950828 26.2111064,7.61619299 27.172383,7.54919299 C30.2094043,7.33795096 31.0719574,8.11463885 31.1702553,11.1725274 C29.3806809,12.9840879 26.7802553,11.7853427 24.8040851,12.750228" id="Fill-1" fill="#056ADF" mask="url(#mask-16)"></path>
                </g>
                <g id="Page-1-Copy-29" transform="translate(1071.000000, 208.000000)">
                    <mask id="mask-18" fill="white">
                        <use xlink:href="#path-17"></use>
                    </mask>
                    <g id="Clip-2"></g>
                    <path d="M34.9198043,39.3799424 C33.7241522,40.9439121 32.1335,41.2886091 30.1832826,41.306003 C25.1248043,41.3511848 20.0691522,41.645397 15.0117609,41.8229424 C14.2906739,41.8481848 13.5665435,41.7705485 12.8435,41.7533667 C11.3406739,41.7179424 9.83806522,41.6810333 8.33523913,41.663003 C5.43871739,41.6277909 3.25002174,39.4384879 3.03067391,36.3470333 C2.78045652,32.8249727 2.60480435,29.2954879 2.25415217,25.7827606 C1.79176087,21.1491848 1.16719565,16.5313061 0.658934783,11.9015485 C0.397413043,9.51815455 0.266326087,7.12097273 0.0174130435,4.73588182 C-0.093673913,3.67039697 0.325891304,3.02109394 1.25871739,2.50945758 C2.44328261,1.85994242 3.54132609,1.06003333 4.72458696,0.407548485 C5.19067391,0.150457576 5.79154348,-0.0186030303 6.32154348,0.00176060606 C11.3030652,0.193942424 16.2821957,0.44700303 21.2628478,0.658275758 C23.2867609,0.743972727 25.3150217,0.740790909 27.3389348,0.830518182 C29.227413,0.914093939 30.6730652,1.9426697 31.0565435,3.74485152 C31.5552391,6.08730606 31.9400217,8.46645758 32.1626304,10.8483667 C32.5691522,15.1996091 32.7519783,19.5707909 33.1687174,23.9207606 C33.3491522,25.8052455 33.9356739,27.6494273 34.2339348,29.5275485 C34.5302391,31.3950636 34.7589348,33.2780636 34.8991522,35.1627606 C35.0037174,36.5640333 34.9198043,37.9788818 34.9198043,39.3799424" id="Fill-1" fill="#056ADF" mask="url(#mask-18)"></path>
                </g>
                <g id="Page-1-Copy-30" transform="translate(1346.000000, 110.000000)">
                    <mask id="mask-20" fill="white">
                        <use xlink:href="#path-19"></use>
                    </mask>
                    <g id="Clip-2"></g>
                    <path d="M8.21693087,22.3350353 C8.55147874,23.3117189 8.67875469,24.1742528 9.10997318,24.8419125 C10.0513508,26.2993699 11.2534014,27.5936963 12.156364,29.0711247 C13.7581834,31.6915208 16.0664582,33.629752 18.3335742,35.5833294 C19.6329285,36.7029627 21.2385473,37.2390245 22.9849505,36.2114677 C23.5092514,35.9030745 24.1705375,35.748983 24.7862322,35.6833942 C28.2606755,35.3140372 31.2745613,33.8147459 33.8810798,31.6488461 C37.0030341,29.0538866 38.6496006,25.7378715 37.8013054,21.5189601 C37.7035795,21.0325103 37.9553874,20.472063 38.0647223,19.9498757 C38.1318429,19.6301306 38.3587445,19.2954599 38.3047103,19.006407 C37.9714288,17.2262614 37.8274783,15.3563518 37.1533168,13.7057019 C35.8039385,10.4029306 33.2265479,8.36883893 29.6763301,7.63517005 C25.7109352,6.81573129 21.8455881,7.60426767 18.0361748,8.5290268 C16.0867211,9.00244294 14.2508237,9.94528102 12.3725009,10.6978697 C11.4408326,11.0710108 11.0587937,11.7645276 10.9213863,12.7893516 C10.766249,13.9482961 10.2930273,15.0643557 9.96671123,16.2014374 C9.37402326,18.266011 8.7878785,20.3320562 8.21693087,22.3350353 M47,20.6141719 C46.813202,26.5470094 44.8962532,31.4314783 41.1708463,35.6484977 C39.531034,37.5045328 37.6356145,38.9989889 35.6369812,40.4448842 C29.8234468,44.6516028 23.5100957,44.7043681 16.9958048,42.775807 C15.2838062,42.2689658 13.6558139,41.2893392 12.1635404,40.2725036 C6.01862418,36.0844946 1.74569852,30.581978 0.26207896,23.135344 C-0.293249404,20.3484534 0.0754920068,17.6576335 0.976977161,15.0832756 C3.237972,8.62825079 7.85663231,4.44801996 14.3605807,2.51020916 C17.5675967,1.55475786 20.9599333,1.23564343 24.2321703,0.473384592 C26.7563709,-0.114811831 29.2493331,-0.172622416 31.7450391,0.400017704 C36.3356269,1.45322145 40.2282022,3.50265923 42.7581018,7.73859844 C44.6841266,10.9635882 46.1147673,14.3237496 46.6990124,18.0288825 C46.8509837,18.9919018 46.9263361,19.9666933 47,20.6141719" id="Fill-1" fill="#056ADF" mask="url(#mask-20)"></path>
                </g>
                <path d="M684.99569,268.076756 C685.076934,270.66424 683.995825,272.908503 682.917624,275.101982 C682.153804,276.655573 679.240232,277.306676 677.115415,276.864002 C673.346804,276.078742 671.306971,273.425027 669.580064,270.224529 C667.461688,266.298654 667.864376,262.203498 668.550277,258.091202 C668.685961,257.276952 669.388901,256.469898 670.015375,255.855402 C670.748651,255.136163 671.634441,254.533729 672.541426,254.050427 C675.943087,252.237622 677.527038,252.798794 680.521231,255.520223 C683.042296,257.811885 683.914996,261.042431 684.500952,264.319107 C684.723075,265.561006 684.834033,266.823642 684.99569,268.076756" id="Fill-1-Copy-16" fill="#056ADF"></path>
                <path d="M1235.2446,189.054483 C1240.14047,188.395725 1242.4773,193.860537 1241.91893,197.352153 C1241.70584,198.685275 1241.14493,200.005649 1240.52387,201.210404 C1239.62489,202.953245 1238.16649,203.812905 1236.16857,203.726082 C1234.983,203.674647 1233.7862,203.982595 1232.593,203.998641 C1231.91834,204.007653 1231.04987,203.982815 1230.5953,203.578372 C1228.05956,201.322725 1226.4889,198.584604 1227.15211,194.92176 C1227.64545,192.196607 1229.96534,189.814572 1232.71988,189.299127 C1233.54875,189.143944 1234.40239,189.132075 1235.2446,189.054483" id="Fill-1-Copy-17" fill="#056ADF"></path>
                <g id="Page-1-Copy-31" transform="translate(1163.000000, 185.000000)">
                    <mask id="mask-22" fill="white">
                        <use xlink:href="#path-21"></use>
                    </mask>
                    <g id="Clip-2"></g>
                    <path d="M14.4428645,26.7401265 C14.6249237,26.7612649 14.8067643,26.7824034 14.9886049,26.8037532 C15.3413582,25.998802 15.7590234,25.2139324 16.0322215,24.3844607 C16.494254,22.981715 16.7814398,21.5218956 17.2913366,20.1377517 C18.360743,17.2331211 18.6162379,14.2268147 18.4094816,11.2080366 C18.2986724,9.58418301 17.8029819,7.93179254 16.2055383,6.96090481 C14.2710776,8.38626862 13.9515451,8.99970563 14.0044363,10.9429608 C14.0236694,11.644545 14.1277032,12.3645197 14.0079332,13.0460224 C13.3175071,16.976712 13.9729639,20.8942958 14.0804946,24.8156846 C14.0981978,25.4595609 14.3171934,26.0987868 14.4428645,26.7401265 M23.4702022,61.2932029 C22.9122225,61.3418213 22.483848,61.3796591 22.0554734,61.4166513 C18.3198726,61.7381667 17.1464324,60.9213781 16.1290428,57.3997169 C15.5028729,55.2313376 14.835614,53.0724705 14.1106557,50.9332622 C13.906085,50.3295488 13.4335616,49.8103892 12.9227906,48.9957144 C12.3280931,49.6685504 11.8949102,50.0291719 11.6304545,50.4819569 C10.8078006,51.8916782 9.90624703,53.2821637 9.29996593,54.7802436 C8.43797145,56.9093055 6.73474556,58.3619379 5.17664246,59.9022947 C4.31967483,60.7493113 3.07214327,61.2579018 1.94066624,61.8022161 C1.26007527,62.1296503 0.383437382,62.098154 0.0413934283,61.3430896 C-0.115312971,60.9968422 0.199848295,60.2662984 0.535335495,59.9259698 C2.29429379,58.1429439 2.43111138,55.6972284 3.39735823,53.5967034 C5.19980965,49.6789082 6.77845724,45.6613397 8.67773006,41.7894149 C9.78276152,39.5373273 10.3851086,37.481193 9.55808344,34.9507125 C8.50987718,31.7427455 7.85726169,28.4077366 7.1451983,25.1052809 C6.59705374,22.5629629 6.09546213,19.9995064 5.80412373,17.4210417 C5.537701,15.0649531 5.61703771,12.7505073 6.83462676,10.4848912 C7.68634899,8.90014367 7.83715431,6.97485617 8.43491164,5.24509907 C8.69587041,4.48918909 9.1697051,3.71784806 9.76265414,3.17311092 C10.6985214,2.31362267 11.7596226,1.54756625 12.8683695,0.904746831 C15.62461,-0.692683739 18.8085693,-0.0771328832 21.2444031,1.98470882 C23.0330853,3.49864263 23.6142322,5.35290503 24.1864182,7.43229162 C25.8028764,13.3085616 24.744835,19.0172039 23.3187412,24.7097811 C22.1018078,29.568236 20.597033,34.3450967 18.3026065,38.853288 C17.6220155,40.1900818 17.6128361,41.4843874 18.2215213,42.9110195 C19.9118523,46.8717257 21.5254692,50.8656192 23.0621536,54.8846674 C23.8496196,56.9443953 23.8706012,58.8407232 23.4702022,61.2932029" id="Fill-1" fill="#056ADF" mask="url(#mask-22)"></path>
                </g>
                <path d="M610.983088,315.557827 C610.794153,317.973128 611.355283,319.86407 612.781226,321.480177 C613.520152,322.31776 614.276102,323.146062 614.945465,324.038064 C616.45253,326.046491 618.606051,326.763846 620.883146,326.478043 C623.91409,326.098167 626.942091,325.452737 629.87573,324.593851 C633.704444,323.472785 635.712324,320.692794 635.818035,316.679104 C635.844515,315.677422 635.252701,314.656545 635.293683,313.65887 C635.393929,311.200329 634.691571,308.995953 633.723569,306.793053 C633.17736,305.550283 632.443268,304.694139 631.15414,304.24276 C626.303411,302.545236 621.648343,303.28727 617.120212,305.370154 C616.185836,305.800019 615.161721,306.353064 614.564023,307.142978 C612.624026,309.706559 610.565918,312.284061 610.983088,315.557827 M624.621072,291.006799 C628.204318,290.981277 631.279816,291.21667 634.232159,292.188612 C639.166111,293.813155 642.71321,297.167705 645.557951,301.431131 C648.970546,306.54606 649.798791,312.094018 648.250535,317.939591 C647.748249,319.835595 646.706271,321.700383 645.507302,323.268188 C644.118557,325.083829 642.345428,326.62569 640.624839,328.157005 C639.193642,329.430781 637.511303,330.222382 635.505105,330.323204 C634.562532,330.370662 633.65905,331.030014 632.709121,331.127039 C629.725044,331.432669 626.728357,331.621447 623.733982,331.817186 C622.278826,331.912313 620.79656,332.102567 619.364733,331.930663 C616.918037,331.636634 614.616353,330.774795 612.496668,329.475286 C607.830881,326.615566 605.159314,322.204071 603.420231,317.220126 C602.598501,314.86515 601.978105,312.289335 602.000592,309.820248 C602.043465,305.103123 603.34184,300.702174 606.731108,297.113076 C608.71629,295.010154 611.072196,293.612988 613.737459,292.655388 C617.415068,291.334155 621.230963,290.941624 624.621072,291.006799" id="Fill-1-Copy-18" fill="#056ADF"></path>
                <path d="M1299.21215,135.161858 C1298.95068,135.015736 1298.82427,134.880837 1298.71858,134.895449 C1294.3786,135.497516 1290.02298,135.212895 1285.66842,135.184094 C1281.94396,135.159317 1278.21824,135.352664 1274.49252,135.379771 C1273.16064,135.389724 1271.82347,135.231531 1270.49582,135.083714 C1269.33472,134.954534 1268.6486,135.410902 1268.2269,136.495596 C1267.87179,137.408755 1267.42684,138.299255 1266.92102,139.139141 C1263.11075,145.463066 1259.2749,151.771531 1255.44877,158.085714 C1254.44791,159.737956 1253.45359,161.39401 1252.34661,163.229435 C1253.20184,163.340191 1253.81145,163.472125 1254.42423,163.488643 C1256.31668,163.539892 1258.21294,163.621424 1260.10307,163.55514 C1263.26505,163.444383 1266.4581,163.45603 1269.57231,162.982933 C1271.94374,162.622709 1274.27206,162.441856 1276.65152,162.525718 C1277.62533,162.560025 1278.60506,162.419408 1279.58225,162.361806 C1280.68057,162.297216 1281.29631,161.667407 1281.85413,160.741965 C1283.45002,158.093126 1285.06959,155.450004 1286.83923,152.91658 C1290.66705,147.436777 1294.59865,142.029824 1298.47254,136.58221 C1298.7801,136.149349 1298.97055,135.63305 1299.21215,135.161858 M1312,130.581873 C1311.81378,132.6602 1311.70619,134.904132 1310.00334,136.846713 C1306.38436,140.975201 1302.84656,145.168915 1300.13248,150.002179 C1299.21342,151.638538 1297.87815,153.048514 1296.67775,154.516303 C1294.1797,157.569203 1291.62754,160.57763 1289.13901,163.637942 C1288.61944,164.276857 1288.2415,165.043047 1287.86356,165.783824 C1287.24634,166.993887 1286.42049,167.64085 1284.95269,167.826362 C1280.34849,168.40831 1275.71343,168.299248 1271.09951,168.631941 C1266.54075,168.960822 1261.95494,169 1257.38118,169 C1254.92519,169 1252.47217,168.593822 1250.01259,168.475442 C1247.78342,168.367862 1246.64621,166.570344 1245.13233,165.393317 C1244.85755,165.17964 1245.05307,164.04285 1245.33335,163.484196 C1246.40567,161.348479 1247.53125,159.232669 1248.76336,157.185896 C1252.39459,151.15464 1256.09622,145.16595 1259.74901,139.147612 C1261.20815,136.743157 1262.68757,134.345267 1264.00508,131.863091 C1264.57009,130.798939 1264.74574,129.527886 1265.18604,128.057555 C1265.47858,128.057555 1266.10891,127.914186 1266.64369,128.080003 C1271.46138,129.571299 1276.39512,129.148603 1281.30244,128.98808 C1285.16703,128.861652 1289.02402,128.458015 1292.88861,128.379236 C1297.24867,128.29008 1301.61444,128.502487 1305.97556,128.433026 C1308.18571,128.398084 1310.14855,128.79685 1312,130.581873" id="Fill-1-Copy-19" fill="#056ADF"></path>
                <path d="M496.959607,310.043414 C497.460546,308.734076 497.034962,307.796298 495.944027,307.1458 C495.19904,306.70151 495.193688,306.088874 495.330912,305.305967 C496.264072,299.978557 497.076493,294.629329 498.073234,289.31454 C498.7662,285.619259 499.691225,281.967614 500.579429,277.996175 C498.500959,279.601564 496.170092,280.259763 494.599412,282.236284 C493.585973,283.511183 491.392543,283.33535 489.681643,282.329762 C488.877999,281.857665 488.022548,281.473698 487.175875,281.042457 C487.958539,280.249923 487.889821,279.487764 486.879807,278.54036 C486.089864,277.799165 485.651435,276.683628 485,275.643816 C485.707952,275.069683 485.924383,274.050192 487.124711,274.627747 C487.385884,274.753098 488.029613,274.351804 488.349872,274.041208 C489.679288,272.752618 490.973595,271.425739 492.241357,270.075758 C494.338666,267.84276 496.423131,265.597141 498.478909,263.325853 C499.669389,262.010525 500.797787,260.638939 501.945666,259.285749 C502.716342,258.37749 503.538825,258.05898 504.863103,258.02561 C507.231433,257.966357 509.463182,258.54434 511.754659,258.810657 C513.560824,259.020715 515.439346,261.159808 515.794286,263.501472 C515.983315,264.747493 516.074726,266.081859 515.840526,267.305848 C514.785342,272.82492 513.591865,278.317467 512.46625,283.823063 C512.342513,284.428212 512.333094,285.056677 512.232264,286.057131 C512.937433,285.585889 513.330263,285.349947 513.693551,285.07486 C514.476644,284.482759 515.316681,283.941782 516.001512,283.249358 C516.943449,282.297462 517.821377,281.268345 518.624593,280.196232 C521.397956,276.494746 523.929627,272.589406 526.946823,269.101616 C528.777179,266.985626 530.209994,264.59134 532.103716,262.547651 C532.388438,262.240263 532.703987,261.875334 532.794327,261.487945 C533.399308,258.891942 535.178927,256.993498 536.615382,254.887775 C537.000506,254.323483 537.377709,253.932671 538.160159,254.009678 C540.538765,254.243695 542.97667,254.17011 545.289554,254.679428 C547.058469,255.068956 548.770655,256.106416 549.636166,257.871167 C549.979974,258.572148 549.977405,259.536023 549.867583,260.344172 C549.69568,261.606878 549.307559,262.841562 548.995007,264.084161 C547.918629,268.362987 546.857451,272.646306 545.745323,276.916148 C545.136061,279.255031 544.428324,281.568459 543.784809,283.898573 C543.676272,284.291738 543.668565,284.712711 543.550823,285.598723 C544.44545,285.034431 545.082114,284.764905 545.544091,284.316123 C546.728577,283.164864 548.083683,282.326982 549.525917,281.522469 C551.26636,280.551749 552.703457,280.868548 554.264718,281.786433 C555.477248,282.499178 556.776908,283.063471 558.032253,283.704557 C558.539187,283.963601 559.064103,284.205319 559.52501,284.533669 C561.399251,285.868891 561.495585,287.127746 559.766702,288.637732 C555.470184,292.389913 551.005829,295.920699 546.037752,298.768259 C543.691044,300.113534 541.26791,301.34886 539.037445,302.865904 C536.904599,304.31685 534.948153,303.742076 533.037733,302.722371 C531.370289,301.832508 529.855697,300.656863 528.177122,299.54368 C528.34924,298.490605 528.168559,297.528441 527.158545,296.830883 C526.227954,296.187872 526.395576,295.349989 526.755011,294.367718 C527.609819,292.031188 528.319269,289.64118 529.073247,287.268071 C529.151171,287.022931 529.13276,286.747202 529.180927,286.268259 C528.747208,286.498212 528.456492,286.569871 528.289298,286.753405 C526.043206,289.219779 523.572975,291.451066 521.624021,294.22718 C518.927083,298.06792 515.894045,301.677852 512.920735,305.317518 C511.165306,307.466022 509.309261,309.541583 507.382785,311.538212 C505.734395,313.246919 503.354719,313.40949 501.362093,312.277054 C499.96717,311.484093 498.499246,310.818621 496.959607,310.043414" id="Fill-1-Copy-20" fill="#056ADF"></path>
                <path d="M888.004178,272.999845 C885.728683,271.584283 885.860947,269.58092 886.170536,267.447462 C886.357959,266.15426 886.163155,264.804538 886.337954,263.507964 C886.873811,259.535347 888.131198,255.775322 890.475059,252.556098 C891.727591,250.835529 893.351086,249.315258 895.041781,248.025228 C898.622831,245.293062 902.789846,243.845373 907.147197,242.994806 C909.613223,242.513698 912.054777,241.716279 914.61772,242.059361 C916.534683,242.315781 918.445042,242.62515 920.357538,242.915877 C922.079308,243.177453 923.79331,243.598473 925.522655,243.67879 C929.201009,243.849538 932.221342,241.91836 935.227109,240.11688 C938.331346,238.256104 940.128474,235.345257 941.130267,231.873779 C941.385862,230.988309 941.657189,230.106607 941.952017,229.234225 C942.83009,226.634533 942.868546,225.979305 942.214409,223.372672 C942.86136,222.472328 943.670874,221.833163 944.882231,221.757804 C945.381574,221.726669 945.887131,221.506739 946.35501,221.292759 C948.314313,220.396382 950.809666,221.650318 950.93358,223.802814 C951.223552,228.840573 950.673517,233.682398 947.074599,237.620906 C946.018036,238.776875 945.050427,240.01693 944.008236,241.18698 C941.104047,244.447453 937.456185,246.407386 933.402013,247.829096 C927.980718,249.729931 922.497272,249.724973 916.929534,249.000931 C914.749984,248.71754 912.553149,248.55413 910.385447,248.200934 C906.110056,247.50406 902.779552,249.322595 900.050551,252.371269 C896.575351,256.25405 893.873347,260.63202 892.742203,265.881579 C892.452231,267.225748 891.8752,268.503284 891.540556,269.840115 C891.055392,271.779622 890.04583,273.015909 888.004178,272.999845" id="Fill-1-Copy-21" fill="#056ADF"></path>
                <g id="Page-1-Copy-32" transform="translate(230.000000, 149.000000)">
                    <mask id="mask-24" fill="white">
                        <use xlink:href="#path-23"></use>
                    </mask>
                    <g id="Clip-2"></g>
                    <path d="M17.4523082,19.3977189 C15.2879148,15.4065231 12.9255377,12.0710965 10.5094557,8.70163497 C8.93560328,11.150635 7.12007869,18.5930196 7.54609508,20.7127259 C7.95527541,20.7127259 8.37148852,20.6999357 8.78663607,20.7159776 C9.3172918,20.736572 9.98988197,20.2319007 10.3191443,21.144558 C10.3406689,21.2041734 10.9759639,21.0680336 11.3116197,20.9711315 C12.5199803,20.6216769 13.7164066,20.2269147 14.9296689,19.8954531 C15.5979967,19.7129217 16.2906197,19.6225231 17.4523082,19.3977189 M8.71034098,0.000173426573 C10.1354393,0.21066993 11.0759148,0.807257343 11.4659148,2.1497958 C11.544341,2.41969091 11.6645377,2.70801259 11.8476033,2.9107049 C15.5645377,7.02525035 17.9693246,12.0704462 21.1920459,16.5370476 C22.6081934,18.4998028 23.8856033,20.5763692 25.1018492,22.6759147 C26.3353574,24.8053762 26.0759967,25.7774322 23.9150131,26.8028168 C22.6529475,27.401572 21.2414885,27.7720545 19.8583738,27.9914392 C15.9389803,28.6127399 11.9935869,29.0616979 8.07184918,29.6686909 C6.75245574,29.8726839 5.46417705,30.3164392 4.17824262,30.7068657 C2.54791475,31.2017818 1.96078361,30.7072993 1.02627541,29.2166979 C-0.744281967,26.3917958 0.125013115,23.7253622 1.03735738,20.9839217 C2.1485377,17.6448098 3.28998033,14.3150196 4.33722623,10.9548797 C5.51191475,7.18697063 6.97558689,3.55173287 8.71034098,0.000173426573" id="Fill-1" fill="#056ADF" mask="url(#mask-24)"></path>
                </g>
                <path d="M1009.64299,281.470002 C1010.24828,281.470002 1010.47653,281.526851 1010.66229,281.461305 C1013.08554,280.607722 1015.32852,279.265195 1017.90118,278.805312 C1018.29787,278.734463 1018.66688,278.457643 1019.027,278.23958 C1020.27752,277.482513 1020.34493,277.142056 1019.49999,275.913227 C1015.44201,270.011752 1011.40157,264.098399 1007.30977,258.220894 C1006.222,256.658396 1004.97444,255.207898 1003.80023,253.705855 C1003.6675,253.78031 1003.53478,253.854766 1003.40185,253.929221 C1006.00431,262.958449 1007.0308,272.350621 1009.64299,281.470002 M1027.01109,306.998584 C1026.7262,306.804067 1025.96177,306.548883 1025.65807,306.024727 C1024.67977,304.335803 1023.8678,302.549515 1022.99854,300.797379 C1020.83926,296.444827 1018.72795,292.067032 1016.50527,287.747358 C1015.57853,285.946434 1014.51506,285.724341 1012.64976,286.416286 C1011.29019,286.920715 1009.88836,287.539054 1008.47744,287.621357 C1006.32196,287.747146 1005.41784,286.834169 1005.0668,284.705302 C1004.6997,282.479707 1004.45497,280.234173 1004.09801,278.006669 C1002.89251,270.489029 1001.57522,262.991753 999.112026,255.762176 C998.737528,254.663591 998.100754,253.601279 997.378598,252.686392 C995.597195,250.42813 995.546473,249.648154 997.201705,247.295922 C997.764086,246.496854 998.127594,245.559907 998.629532,244.714384 C999.943023,242.500881 1002.3779,242.398637 1003.70745,244.595383 C1008.5996,252.678331 1014.33119,260.18685 1019.54416,268.04919 C1021.40925,270.862153 1023.3145,273.648177 1025.17156,276.466444 C1025.55473,277.048509 1025.89858,277.691454 1026.09386,278.355611 C1026.39207,279.371044 1025.87111,280.266416 1024.70746,280.921239 C1023.7896,281.437971 1022.84765,281.91249 1021.91034,282.393585 C1020.2046,283.268805 1019.96663,283.783203 1020.76487,285.562279 C1021.65842,287.553266 1022.72908,289.464282 1023.61017,291.460148 C1025.34233,295.384424 1027.01785,299.334579 1028.6623,303.296613 C1028.92352,303.925769 1028.96368,304.670745 1028.9958,305.367358 C1029.05138,306.568186 1028.56403,307.029129 1027.01109,306.998584" id="Fill-1-Copy-22" fill="#056ADF"></path>
                <g id="Page-1-Copy-33" transform="translate(793.000000, 285.000000)">
                    <mask id="mask-26" fill="white">
                        <use xlink:href="#path-25"></use>
                    </mask>
                    <g id="Clip-2"></g>
                    <path d="M20.7435041,11.034548 C20.6232968,11.0947919 20.5035226,11.1552472 20.3833152,11.2154911 C20.587776,11.8525967 20.7571493,12.5028081 21.0029788,13.1244829 C21.9340986,15.4801252 22.8959742,17.8241415 23.8348912,20.1768244 C26.5751862,27.0414585 29.2977207,33.9122228 32.0538267,40.7707268 C32.8913797,42.8545317 33.8863935,43.1303854 35.8281217,41.8667431 C37.2937853,40.9131984 38.2881493,39.5650033 39.1701032,38.0876537 C40.4926009,35.8730033 40.5207576,35.140987 38.9106286,33.162239 C34.8876885,28.2182228 30.8576009,23.2799138 26.8166839,18.3498488 C24.8080295,15.8992959 22.7690525,13.4722065 20.7435041,11.034548 M29.8459097,46.3958163 C29.7534258,45.8701089 29.7599235,45.4410033 29.6011631,45.0810195 C28.0685733,41.603361 26.4140433,38.1741089 24.9778359,34.6594585 C22.8708498,29.5032146 20.929988,24.282922 18.8866793,19.1019463 C18.0601724,17.0071496 17.1957622,14.9237675 16.2577115,12.875052 C15.8145687,11.9075561 15.4260065,10.8026618 14.0915963,10.339735 C13.8893014,10.9216699 13.6893889,11.3649382 13.5808774,11.8284992 C12.0918221,18.1887756 10.6088313,24.5503203 9.13796959,30.914613 C8.2189788,34.8911333 7.33182673,38.8748407 6.41305253,42.851361 C5.96687742,44.7812797 6.10267926,44.994987 8.21291429,45.1640927 C13.4546055,45.5838976 18.6949972,46.0254748 23.94167,46.3753122 C25.8543751,46.502987 27.7833244,46.3958163 29.8459097,46.3958163 M32.3836931,51.7598488 C26.851988,51.3962715 21.3233152,50.9743528 15.7870618,50.6894098 C11.9046885,50.4894423 8.01148571,50.4985317 4.12478065,50.3617675 C3.3545871,50.3347106 2.46267005,50.2636862 1.85145346,49.8758 C0.0331815668,48.7216537 -0.557892166,47.5112797 0.583319816,46.0624667 C2.75614931,43.3039301 2.99006636,39.948239 3.76545806,36.7658813 C4.74834286,32.7322878 5.62206636,28.6729057 6.50661935,24.6173285 C7.39052258,20.5651333 8.24626912,16.5072309 9.07949032,12.4451008 C9.37795115,10.9912146 9.44855945,9.55635285 8.93762396,8.07921463 C8.32684055,6.31248293 9.39506175,4.16695447 11.1431585,3.34425528 C12.2486332,2.82383252 13.2007622,2.27487317 13.9451816,1.1860439 C15.1821263,-0.622752846 17.6891539,-0.290460163 19.2135134,1.6918813 C21.587988,4.77975122 23.908965,7.90926341 26.3601124,10.9383691 C30.779412,16.4002715 35.2853475,21.7949545 39.7369189,27.2319138 C40.5454488,28.2192797 41.2420018,29.2935236 42.0388359,30.2908244 C42.7771908,31.214987 43.4975687,32.0252146 44.8250479,32.412678 C46.8142092,32.9933447 47.5111954,35.4851171 46.2499926,37.1254423 C44.6539419,39.201426 43.1061908,41.2903041 41.6619696,43.4772634 C40.768753,44.8296862 39.1402138,45.7498325 37.7568544,46.7528407 C36.893094,47.3789545 36.3773935,48.0416374 36.1958912,49.1224341 C35.8419834,51.2275886 34.6353613,52.0359138 32.3836931,51.7598488" id="Fill-1" fill="#056ADF" mask="url(#mask-26)"></path>
                </g>
                <path d="M1089,299.273793 C1089.62676,298.941878 1090.08564,298.605339 1090.59957,298.441799 C1094.39564,297.234588 1098.17196,295.946868 1102.01825,294.924217 C1104.09541,294.372007 1106.29148,294.226335 1108.44554,294.019072 C1110.10583,293.859316 1111.53333,294.737975 1113.00368,295.35619 C1113.12702,295.407901 1113.26107,295.508379 1113.32242,295.622521 C1114.23535,297.325607 1115.2857,298.975511 1115.99776,300.759947 C1116.65057,302.395346 1116.0963,304.110204 1115.43235,305.655426 C1114.34629,308.182728 1112.81143,310.407755 1110.69478,312.236124 C1108.94939,313.743508 1107.2622,315.334135 1105.68868,317.018512 C1104.79802,317.971795 1104.06221,319.126034 1103.49008,320.303396 C1102.95661,321.40151 1103.41465,322.112005 1104.62278,322.155518 C1106.1505,322.210802 1107.70595,322.187259 1109.21286,321.957504 C1110.92947,321.695588 1112.61498,321.202235 1114.29754,320.749663 C1116.78463,320.080998 1119.32234,320.187362 1121.8048,320.493212 C1124.33853,320.805367 1126.22805,322.220682 1127,324.761017 C1126.54637,325.76643 1125.73871,325.931232 1124.86948,325.935015 C1121.20199,325.951201 1117.67276,326.778991 1114.11223,327.560536 C1110.9135,328.262623 1107.6404,328.800329 1104.3759,328.985099 C1099.88353,329.239238 1096.98799,326.218583 1097.5555,321.757599 C1098.30139,315.894963 1099.60681,310.158872 1104.01241,305.706506 C1105.09217,304.615328 1106.04986,303.398027 1107.00964,302.195441 C1107.50529,301.574283 1107.88202,300.858113 1108.31254,300.184824 C1108.22198,300.04819 1108.13163,299.911346 1108.04108,299.774713 C1107.38889,299.855642 1106.70624,299.839876 1106.08957,300.033896 C1103.36023,300.892376 1100.59412,301.674551 1097.94862,302.748702 C1095.61134,303.697781 1093.38522,303.733305 1091.0345,302.98182 C1090.05265,302.667773 1089.44901,302.206792 1089.37715,301.125915 C1089.34059,300.577488 1089.16158,300.038521 1089,299.273793" id="Fill-1-Copy-23" fill="#056ADF"></path>
                <path d="M346.404273,323.892346 C348.595935,323.516626 350.460968,323.358249 352.224805,322.853953 C354.434122,322.222359 356.600808,321.56586 358.939097,321.723173 C359.983361,321.793421 360.518196,321.207382 360.595924,320.197301 C360.639417,319.633188 360.632096,319.061412 360.726834,318.506239 C360.794657,318.108593 360.908772,317.466143 361.14863,317.391212 C362.489163,316.972704 362.274712,315.907276 362.301626,314.957437 C362.439857,310.07967 362.546652,305.201265 362.682298,300.323498 C362.739571,298.263741 362.684882,298.214568 360.583005,298.118136 C356.73344,297.941452 352.867081,298.649041 349.026989,297.896536 C348.68615,297.829694 348.312153,297.901006 347.956673,297.936981 C345.165798,298.219677 344.878356,298.489599 345.340416,301.265247 C346.09853,305.818596 346.24731,310.397915 346.187023,314.992987 C346.159894,317.043378 346.00896,319.092704 346.001208,321.142669 C345.997979,321.95563 346.230946,322.769868 346.404273,323.892346 M340.411276,308.456728 C340.411276,304.688454 340.411922,301.286322 340.41106,297.884189 C340.410414,295.266492 341.482884,294.234272 344.183759,294.209153 C349.547614,294.159341 354.911039,294.092712 360.274463,294.037578 C361.852916,294.021612 363.433307,293.968394 365.009176,294.026509 C366.772152,294.091861 367.528543,294.66683 367.777874,296.383436 C367.998569,297.905263 368.040771,299.473497 367.965842,301.011929 C367.806726,304.268456 367.454045,307.516256 367.303542,310.77321 C367.152393,314.049535 366.646625,317.230493 365.486523,320.318638 C365.199512,321.082426 365.252048,321.979472 365.196067,322.81819 C365.056114,324.925631 364.382403,325.638967 362.219162,325.983396 C359.246778,326.456612 356.268366,326.900239 353.312346,327.459881 C351.770712,327.75173 350.272139,328.26603 348.753328,328.677513 C346.377574,329.321454 344.178807,329.070902 342.367171,327.287028 C341.898436,326.82552 341.505061,326.208189 341.289534,325.590007 C339.810555,321.343408 339.875795,316.955461 340.167327,312.552401 C340.265725,311.066336 340.344744,309.579207 340.411276,308.456728" id="Fill-1-Copy-24" fill="#056ADF"></path>
                <path d="M744.607135,291.677299 C745.105756,290.357881 745.708134,289.091427 746.063092,287.757546 C746.882856,284.674792 747.82927,281.668612 749.413558,278.871735 C750.446927,277.047353 751.159153,275.038553 752.155345,273.189922 C753.35422,270.964162 757.476352,270.268187 759.320243,271.883054 C759.983111,272.463742 760.232841,274.124554 759.744092,275.27721 C759.05728,276.89782 758.3837,278.53332 757.550074,280.077355 C756.999574,281.096857 755.888913,281.746888 755.687911,283.050991 C755.571762,283.802695 755.188239,284.510582 754.941029,285.243569 C754.154871,287.574618 753.334057,289.894819 752.61448,292.24714 C752.3072,293.251539 752.321482,294.358251 752.00412,295.358396 C751.559688,296.757579 751.187717,298.290979 750.335188,299.418323 C749.2993,300.788365 747.621546,301.410106 745.855578,300.974696 C743.677944,300.438038 741.674637,299.608058 740.049182,297.844721 C738.827833,296.520199 737.190827,295.597266 735.791579,294.430784 C733.418402,292.453039 731.110126,290.395318 728.722877,288.435866 C728.054968,287.887509 727.205799,287.565472 726.208977,287.011371 C725.498221,289.377305 724.867698,291.453745 724.250198,293.534439 C723.509407,296.030761 722.820075,298.543462 722.032867,301.024682 C721.350675,303.174719 720.576489,305.295189 719.819526,307.420338 C718.686811,310.601575 716.356482,311.699779 713.024079,310.56499 C713.024079,310.328035 712.964429,310.04003 713.0329,309.787973 C714.306758,305.088013 715.605189,300.394433 716.868965,295.691707 C717.009268,295.169726 716.969992,294.597971 717.012418,294.049401 C717.044344,293.638878 716.944157,293.154758 717.123947,292.828466 C718.80149,289.782511 718.80065,286.331349 719.482001,283.047588 C719.710098,281.948534 719.839899,280.827784 720.08795,279.734047 C720.576909,277.57529 723.83202,275.997859 725.697754,276.371159 C727.496487,276.730633 729.238091,277.17838 730.605203,278.554803 C730.937688,278.88939 731.401863,279.173991 731.853017,279.287364 C733.179173,279.6211 733.978773,280.60742 734.768292,281.585231 C736.887537,284.209815 738.925919,286.90204 741.07898,289.497059 C741.919327,290.510179 742.939043,291.403759 744.607135,291.677299" id="Fill-1-Copy-25" fill="#056ADF"></path>
                <path d="M924.402749,292.209716 C924.311436,292.029343 924.220336,291.84897 924.129023,291.668598 C923.799318,291.653514 923.465355,291.596576 923.140545,291.629719 C919.833912,291.965395 916.530897,292.336338 913.222348,292.651405 C911.960783,292.771654 910.676656,292.900825 909.423605,292.789925 C908.348709,292.694958 907.506247,292.935455 906.670596,293.562829 C903.506359,295.938691 900.312324,298.275249 897.149791,300.653023 C896.744523,300.957681 896.457814,301.419341 895.800744,302.166964 C899.079281,301.951536 901.874434,301.766702 904.62574,301.140603 C907.562865,300.472226 910.485516,299.818508 913.544604,300.361325 C915.138855,300.6441 916.63413,300.426761 917.594298,298.811481 C917.907827,298.284172 918.463793,297.897083 918.920783,297.458155 C920.745338,295.706055 922.575001,293.958629 924.402749,292.209716 M921.45413,324.748807 C921.994771,324.478142 922.216987,324.425241 922.356617,324.287997 C924.722663,321.962486 927.08126,319.629327 929.432407,317.28852 C929.678888,317.043349 929.830012,316.546634 930.090115,316.495857 C931.850602,316.151471 931.75482,314.76564 931.759502,313.528101 C931.767378,311.341535 931.647756,309.154543 931.588796,306.967552 C931.526005,304.642041 931.47705,302.315893 931.411492,299.990595 C931.365729,298.369578 931.362536,296.743675 931.218011,295.130732 C931.154581,294.423476 931.14479,293.547745 930.041798,293.12815 C929.068646,294.064855 928.06165,295.037465 927.051248,296.006039 C924.809719,298.154576 922.636089,300.381508 920.291115,302.41086 C919.301786,303.267045 918.961863,304.030601 919.168115,305.300008 C920.107851,311.077456 920.855169,316.87891 921.052907,322.739002 C921.073341,323.347042 921.288745,323.948284 921.45413,324.748807 M891.285758,305.788013 C891.143787,306.813736 890.938812,307.642515 890.934555,308.472357 C890.927105,309.883895 891.003731,311.299469 891.119309,312.707395 C891.563954,318.134083 892.026265,323.559495 892.507733,328.982783 C892.654174,330.630357 893.174381,331.084156 894.801836,331.054413 C895.648343,331.039116 896.493573,330.931827 897.339228,330.864905 C901.147763,330.564284 904.954382,330.229458 908.765896,329.973877 C911.351818,329.800515 913.944763,329.738691 916.767374,329.616743 C916.639664,328.441878 916.569636,327.473305 916.423408,326.516416 C916.113497,324.490677 915.672897,322.481084 915.451106,320.446846 C915.098413,317.215436 914.990285,313.955132 914.566287,310.734556 C914.295328,308.676312 914.266167,306.510141 913.053984,304.450621 C905.883474,304.891036 898.715945,305.331664 891.285758,305.788013 M937.684197,298.464332 C936.701253,303.027398 937.55968,307.589614 937.953666,312.160541 C938.093296,313.778583 937.991766,315.280626 936.585888,316.38177 C935.470339,319.845817 932.110706,321.553939 930.205268,324.461571 C928.906028,326.444182 926.631933,327.839149 924.6537,329.309324 C923.6367,330.065019 922.793173,330.666261 922.696752,332.078436 C922.618636,333.227807 920.906253,334.372929 919.76729,334.361457 C916.382966,334.327889 912.995662,334.226549 909.614957,334.329589 C904.732379,334.478093 899.855973,334.825666 894.973607,334.992442 C893.72162,335.035145 892.400244,334.899175 891.211261,334.52632 C889.127667,333.872815 888.075759,332.298325 887.900796,330.102836 C887.491059,324.958286 887.012784,319.818835 886.616456,314.67301 C886.372316,311.502574 886.237582,308.32364 886.03282,305.149591 C885.976201,304.27301 885.854238,303.455704 887.068763,303.215844 C887.415497,303.147009 887.692841,302.674301 887.979125,302.365607 C888.684512,301.603751 889.324553,300.772847 890.088261,300.075789 C890.915824,299.320943 891.846832,298.67721 892.74421,298.000547 C894.940402,296.344264 897.15873,294.716449 899.33832,293.03892 C900.847856,291.877439 902.289706,290.62864 903.80137,289.469921 C904.228348,289.142531 904.950125,288.667061 905.270465,288.818965 C907.379814,289.820044 909.257155,288.488601 911.239858,288.379188 C911.518905,288.363679 911.789438,288.231958 912.06955,288.198603 C916.632427,287.653448 921.19573,287.109356 925.76031,286.579073 C927.448214,286.382979 929.138461,286.204094 930.830835,286.056651 C931.51962,285.996952 932.226284,285.968696 932.909321,286.051977 C935.749811,286.397638 935.937971,286.727365 936.252564,289.63521 C936.510539,292.019145 937.011802,294.376736 937.404512,296.746225 C937.496676,297.301152 937.585435,297.856504 937.684197,298.464332" id="Fill-1-Copy-26" fill="#056ADF"></path>
                <g id="Page-1-Copy-34" transform="translate(1442.000000, 126.000000)">
                    <mask id="mask-28" fill="white">
                        <use xlink:href="#path-27"></use>
                    </mask>
                    <g id="Clip-2"></g>
                    <path d="M8.55988427,31.2397619 C8.46274944,31.2680803 8.36561461,31.2966131 8.26847978,31.3249315 C8.36753596,31.5600595 8.46659213,31.794973 8.56543483,32.030101 C8.63716517,32.003928 8.70889551,31.977755 8.78062584,31.951582 C8.70697416,31.7143087 8.63353596,31.4768208 8.55988427,31.2397619 L8.55988427,31.2397619 Z M8.35109775,27.976717 C8.28513146,27.9829384 8.2187382,27.9891599 8.15277191,27.9953813 C8.17988427,28.3480734 8.20678315,28.7005509 8.23368202,29.0532429 C8.27274944,29.0470215 8.31203034,29.0408 8.35109775,29.0347931 L8.35109775,27.976717 Z M18.9793562,55.1558865 C20.1014236,56.666627 21.3315135,57.3085093 23.2355697,57.3863848 C22.0377157,55.9610284 20.9250416,55.0956028 18.9793562,55.1558865 L18.9793562,55.1558865 Z M49.7715247,32.6861426 C49.6011652,32.6383017 49.4308056,32.5902464 49.2604461,32.5419765 C49.0311652,32.9738311 48.7982551,33.4039696 48.5730303,33.837755 C47.7229404,35.4739972 47.0028618,37.1951945 46.0037607,38.7331806 C42.7383225,43.7588277 38.3025697,47.6596789 33.5579067,51.19089 C31.9864573,52.3603087 30.0781315,53.0689107 28.3395247,54.0177896 C27.8941989,54.2608554 27.5099292,54.6165509 27.0310865,54.9694574 C29.2237719,56.5252498 29.9880416,56.4965024 32.1218056,54.8152083 C38.1262326,50.0839003 43.2658393,44.4858796 48.0664348,38.5652014 C49.4434011,36.8667446 49.7960753,34.7965024 49.7715247,32.6861426 L49.7715247,32.6861426 Z M12.1897382,25.147672 C11.7431315,33.9199211 14.3881876,41.6478242 19.7041315,48.5201702 C20.2256708,49.194018 20.7388843,49.9581841 21.4346258,50.3896097 C22.1702888,50.8457066 23.1655472,51.2640457 23.9648281,51.1439073 C25.2683562,50.9480388 26.5785022,50.4428138 27.7556483,49.8193813 C31.5556483,47.807063 34.8112663,45.0387308 37.8233,41.9990145 C41.5379067,38.2504817 44.4453337,33.9471668 45.6933562,28.7445301 C46.4665921,25.5222464 46.7814798,22.1980595 44.7027944,19.2484471 C41.8391315,15.185409 38.2383112,11.9983087 33.4003562,10.5605093 C31.4702551,9.98706298 29.4976708,9.21817716 27.3647607,10.1458173 C26.7768281,10.4015405 25.8035584,10.1177135 25.1500865,9.7920526 C23.807491,9.12292457 22.4354348,8.92727059 21.007873,9.17183806 C19.7502438,9.38722907 18.506064,9.70688304 17.2753337,10.0505647 C15.7429517,10.4785578 14.6360416,11.4855751 14.0425584,12.943755 C13.5891202,14.0576097 13.1630079,15.2298173 13.0146371,16.4127516 C12.6504348,19.3130215 12.4536034,22.2345301 12.1897382,25.147672 L12.1897382,25.147672 Z M29.5935247,0.00506297578 C33.3726034,0.108253287 37.1130416,0.436703114 40.6263337,2.02124291 C43.0034685,3.09326367 45.0255809,4.52527059 46.4019067,6.86475156 C47.2611764,8.32550588 48.4218843,9.61699377 49.5134236,10.9284332 C51.6565809,13.5032567 53.6601202,16.1535958 55.0729517,19.2308554 C57.3448393,24.1799142 57.5470079,29.1731668 55.3568843,34.1544055 C53.7544798,37.799319 52.1283787,41.4603225 50.1570753,44.9085093 C47.5316596,49.5003709 44.2568281,53.664883 40.0740528,56.9483087 C38.5982438,58.1065716 36.7821427,58.9305924 35.0010528,59.567326 C32.6794236,60.3971391 30.2265022,60.8480872 27.8510753,61.5356651 C24.7912213,62.4216858 22.1068843,61.6811183 19.3100416,60.2559765 C14.1040416,57.6026339 11.0523,53.2040664 8.75265955,48.1127723 C7.84685056,46.1071045 7.18612022,43.9866616 6.46518764,41.9003294 C5.46416517,39.003492 4.57159213,36.0680388 3.5231764,33.1892221 C2.21089551,29.5852844 1.45687303,25.927928 1.88725506,22.0695543 C1.95364831,21.4748692 1.96731124,20.4858727 1.64772697,20.2998727 C-0.367553933,19.1265924 -0.16111573,17.3142187 0.330962921,15.612973 C1.20624382,12.5863433 2.59110899,9.80621176 4.83161461,7.4823917 C7.46215393,4.75417716 10.7623899,3.30844014 14.2919067,2.40203875 C18.753918,1.25643322 23.2396258,0.126917647 27.8892888,0.0072083045 C28.4569404,-0.0073799308 29.0254461,0.00506297578 29.5935247,0.00506297578 L29.5935247,0.00506297578 Z" id="Fill-1" fill="#056ADF" mask="url(#mask-28)"></path>
                </g>
            </g>
            <rect id="Rectangle-15" x="0" y="0" width="1500" height="600"></rect>
        </g>
    </g>
</svg>